<svg xmlns="http://www.w3.org/2000/svg" xmlns:xlink="http://www.w3.org/1999/xlink" width="1200" zoomAndPan="magnify" viewBox="0 0 900 225" height="300" preserveAspectRatio="xMidYMid meet" version="1.0"><defs><g/><clipPath id="b8e38835d5"><path d="M 0 22 L 113 22 L 113 201.113281 L 0 201.113281 Z M 0 22 " clip-rule="nonzero"/></clipPath><clipPath id="50f8460fd2"><path d="M 24 7.613281 L 51 7.613281 L 51 38 L 24 38 Z M 24 7.613281 " clip-rule="nonzero"/></clipPath><clipPath id="18d706a690"><path d="M 66 7.613281 L 94 7.613281 L 94 38 L 66 38 Z M 66 7.613281 " clip-rule="nonzero"/></clipPath><clipPath id="1d8ec1727b"><path d="M 629 23 L 739.957031 23 L 739.957031 201.113281 L 629 201.113281 Z M 629 23 " clip-rule="nonzero"/></clipPath><clipPath id="7d7dc5bbd1"><path d="M 650 7.613281 L 673 7.613281 L 673 33 L 650 33 Z M 650 7.613281 " clip-rule="nonzero"/></clipPath><clipPath id="5ef5a4207b"><path d="M 685 7.613281 L 709 7.613281 L 709 33 L 685 33 Z M 685 7.613281 " clip-rule="nonzero"/></clipPath><clipPath id="3ac20af9f2"><path d="M 736 22.5 L 899 22.5 L 899 201 L 736 201 Z M 736 22.5 " clip-rule="nonzero"/></clipPath><clipPath id="3541f23ef4"><path d="M 756.878906 58.96875 L 876.128906 58.96875 L 876.128906 112.222656 L 756.878906 112.222656 Z M 756.878906 58.96875 " clip-rule="nonzero"/></clipPath><clipPath id="e66b8527e2"><path d="M 777.207031 126.367188 L 858.207031 126.367188 L 858.207031 155.617188 L 777.207031 155.617188 Z M 777.207031 126.367188 " clip-rule="nonzero"/></clipPath></defs><g fill="#3d3b3a" fill-opacity="1"><g transform="translate(91.117086, 186.276911)"><g><path d="M 42.0625 -41.734375 C 41.019531 -41.648438 40.125 -41.738281 39.375 -42 C 38.632812 -42.257812 37.894531 -42.539062 37.15625 -42.84375 C 36.488281 -43.144531 35.816406 -43.425781 35.140625 -43.6875 C 34.472656 -43.945312 33.726562 -44.035156 32.90625 -43.953125 C 31.425781 -43.878906 30.109375 -43.46875 28.953125 -42.71875 C 27.796875 -41.976562 26.753906 -41.050781 25.828125 -39.9375 C 24.898438 -38.820312 24.097656 -37.578125 23.421875 -36.203125 C 22.753906 -34.828125 22.238281 -33.472656 21.875 -32.140625 C 21.644531 -31.242188 21.472656 -29.882812 21.359375 -28.0625 C 21.253906 -26.238281 21.203125 -24.285156 21.203125 -22.203125 C 21.128906 -20.046875 21.09375 -18 21.09375 -16.0625 C 21.09375 -14.132812 21.015625 -12.609375 20.859375 -11.484375 C 20.785156 -10.296875 20.597656 -8.898438 20.296875 -7.296875 C 20.003906 -5.703125 19.539062 -4.195312 18.90625 -2.78125 C 18.28125 -1.375 17.445312 -0.1875 16.40625 0.78125 C 15.363281 1.75 14.023438 2.234375 12.390625 2.234375 C 11.117188 2.234375 10.019531 1.859375 9.09375 1.109375 C 8.164062 0.367188 7.382812 -0.613281 6.75 -1.84375 C 6.113281 -3.070312 5.59375 -4.503906 5.1875 -6.140625 C 4.78125 -7.773438 4.460938 -9.445312 4.234375 -11.15625 C 4.015625 -12.9375 3.847656 -14.71875 3.734375 -16.5 C 3.628906 -18.289062 3.554688 -19.984375 3.515625 -21.578125 C 3.472656 -23.179688 3.472656 -24.648438 3.515625 -25.984375 C 3.554688 -27.328125 3.578125 -28.410156 3.578125 -29.234375 C 3.492188 -31.835938 3.359375 -34.457031 3.171875 -37.09375 C 2.992188 -39.738281 2.90625 -42.363281 2.90625 -44.96875 C 2.90625 -46.601562 2.976562 -48.421875 3.125 -50.421875 C 3.269531 -52.429688 3.675781 -54.3125 4.34375 -56.0625 C 5.019531 -57.8125 6.007812 -59.28125 7.3125 -60.46875 C 8.613281 -61.65625 10.414062 -62.25 12.71875 -62.25 C 13.976562 -62.25 15.054688 -61.835938 15.953125 -61.015625 C 16.847656 -60.203125 17.570312 -59.203125 18.125 -58.015625 C 18.6875 -56.828125 19.113281 -55.5625 19.40625 -54.21875 C 19.707031 -52.882812 19.894531 -51.660156 19.96875 -50.546875 C 21.757812 -53.441406 23.769531 -55.800781 26 -57.625 C 28.226562 -59.445312 31.128906 -60.429688 34.703125 -60.578125 C 36.484375 -60.660156 38.25 -60.492188 40 -60.078125 C 41.75 -59.671875 43.347656 -59 44.796875 -58.0625 C 46.242188 -57.132812 47.429688 -55.925781 48.359375 -54.4375 C 49.296875 -52.957031 49.800781 -51.210938 49.875 -49.203125 C 50.019531 -46.828125 49.3125 -45.003906 47.75 -43.734375 C 46.1875 -42.472656 44.289062 -41.804688 42.0625 -41.734375 Z M 42.0625 -41.734375 "/></g></g></g><g fill="#3d3b3a" fill-opacity="1"><g transform="translate(145.822677, 186.276911)"><g><path d="M 52.21875 -31.90625 C 52.21875 -27.8125 51.804688 -23.753906 50.984375 -19.734375 C 50.171875 -15.722656 48.796875 -12.132812 46.859375 -8.96875 C 44.921875 -5.8125 42.332031 -3.265625 39.09375 -1.328125 C 35.863281 0.597656 31.832031 1.5625 27 1.5625 C 22.238281 1.5625 18.257812 0.613281 15.0625 -1.28125 C 11.863281 -3.175781 9.316406 -5.6875 7.421875 -8.8125 C 5.523438 -11.9375 4.1875 -15.46875 3.40625 -19.40625 C 2.625 -23.351562 2.234375 -27.375 2.234375 -31.46875 C 2.234375 -35.925781 2.753906 -40.347656 3.796875 -44.734375 C 4.015625 -45.929688 4.441406 -47.585938 5.078125 -49.703125 C 5.710938 -51.828125 6.53125 -53.910156 7.53125 -55.953125 C 8.53125 -57.992188 9.679688 -59.757812 10.984375 -61.25 C 12.285156 -62.738281 13.71875 -63.484375 15.28125 -63.484375 C 16.769531 -63.484375 17.957031 -63.070312 18.84375 -62.25 C 19.738281 -61.4375 20.445312 -60.414062 20.96875 -59.1875 C 21.488281 -57.957031 21.820312 -56.65625 21.96875 -55.28125 C 22.125 -53.90625 22.203125 -52.660156 22.203125 -51.546875 C 22.203125 -49.835938 22.070312 -48.164062 21.8125 -46.53125 C 21.550781 -44.894531 21.269531 -43.253906 20.96875 -41.609375 C 20.675781 -39.378906 20.398438 -37.148438 20.140625 -34.921875 C 19.878906 -32.691406 19.75 -30.460938 19.75 -28.234375 C 19.75 -27.109375 19.800781 -25.859375 19.90625 -24.484375 C 20.019531 -23.109375 20.300781 -21.785156 20.75 -20.515625 C 21.195312 -19.253906 21.828125 -18.195312 22.640625 -17.34375 C 23.460938 -16.488281 24.617188 -16.0625 26.109375 -16.0625 C 28.046875 -16.0625 29.585938 -16.582031 30.734375 -17.625 C 31.890625 -18.664062 32.742188 -19.96875 33.296875 -21.53125 C 33.859375 -23.09375 34.210938 -24.765625 34.359375 -26.546875 C 34.515625 -28.335938 34.59375 -29.976562 34.59375 -31.46875 C 34.59375 -34.738281 34.367188 -37.953125 33.921875 -41.109375 C 33.472656 -44.273438 33.0625 -47.492188 32.6875 -50.765625 C 32.613281 -51.140625 32.578125 -51.660156 32.578125 -52.328125 C 32.578125 -53.441406 32.757812 -54.554688 33.125 -55.671875 C 33.5 -56.785156 34.019531 -57.789062 34.6875 -58.6875 C 35.363281 -59.582031 36.1875 -60.304688 37.15625 -60.859375 C 38.125 -61.421875 39.203125 -61.703125 40.390625 -61.703125 C 42.023438 -61.703125 43.472656 -61.125 44.734375 -59.96875 C 46.003906 -58.8125 47.066406 -57.320312 47.921875 -55.5 C 48.773438 -53.6875 49.476562 -51.644531 50.03125 -49.375 C 50.59375 -47.101562 51.039062 -44.867188 51.375 -42.671875 C 51.707031 -40.484375 51.929688 -38.421875 52.046875 -36.484375 C 52.160156 -34.546875 52.21875 -33.019531 52.21875 -31.90625 Z M 52.21875 -31.90625 "/></g></g></g><g fill="#3d3b3a" fill-opacity="1"><g transform="translate(208.002706, 186.276911)"><g><path d="M 27.5625 32.46875 C 25.769531 32.46875 23.738281 32.1875 21.46875 31.625 C 19.207031 31.070312 17.070312 30.273438 15.0625 29.234375 C 13.050781 28.191406 11.359375 26.925781 9.984375 25.4375 C 8.609375 23.945312 7.921875 22.238281 7.921875 20.3125 C 7.921875 19.5625 8.101562 18.8125 8.46875 18.0625 C 8.84375 17.320312 9.347656 16.671875 9.984375 16.109375 C 10.617188 15.554688 11.304688 15.113281 12.046875 14.78125 C 12.796875 14.445312 13.578125 14.28125 14.390625 14.28125 C 15.285156 14.28125 16.160156 14.410156 17.015625 14.671875 C 17.867188 14.929688 18.742188 15.25 19.640625 15.625 C 20.609375 15.988281 21.554688 16.320312 22.484375 16.625 C 23.410156 16.925781 24.394531 17.078125 25.4375 17.078125 C 27.300781 17.078125 28.921875 16.441406 30.296875 15.171875 C 31.671875 13.910156 32.835938 12.253906 33.796875 10.203125 C 34.765625 8.160156 35.546875 5.894531 36.140625 3.40625 C 36.742188 0.914062 37.210938 -1.554688 37.546875 -4.015625 C 37.878906 -6.472656 38.117188 -8.78125 38.265625 -10.9375 C 38.421875 -13.09375 38.535156 -14.835938 38.609375 -16.171875 C 36.003906 -12.234375 33.414062 -9.203125 30.84375 -7.078125 C 28.28125 -4.960938 25.140625 -3.90625 21.421875 -3.90625 C 18.597656 -3.90625 16.125 -4.5 14 -5.6875 C 11.882812 -6.875 10.082031 -8.4375 8.59375 -10.375 C 7.101562 -12.3125 5.875 -14.523438 4.90625 -17.015625 C 3.9375 -19.503906 3.210938 -22.085938 2.734375 -24.765625 C 2.253906 -27.441406 1.9375 -30.0625 1.78125 -32.625 C 1.632812 -35.195312 1.632812 -37.5625 1.78125 -39.71875 C 1.851562 -41.351562 2.054688 -43.488281 2.390625 -46.125 C 2.734375 -48.769531 3.273438 -51.359375 4.015625 -53.890625 C 4.753906 -56.421875 5.796875 -58.554688 7.140625 -60.296875 C 8.484375 -62.046875 10.234375 -62.847656 12.390625 -62.703125 C 13.796875 -62.628906 14.945312 -62.015625 15.84375 -60.859375 C 16.738281 -59.710938 17.460938 -58.28125 18.015625 -56.5625 C 18.578125 -54.851562 18.988281 -52.972656 19.25 -50.921875 C 19.507812 -48.878906 19.675781 -46.851562 19.75 -44.84375 C 19.820312 -42.84375 19.835938 -41.003906 19.796875 -39.328125 C 19.765625 -37.648438 19.75 -36.367188 19.75 -35.484375 C 19.75 -34.210938 19.785156 -32.945312 19.859375 -31.6875 C 19.929688 -30.425781 20.191406 -29.289062 20.640625 -28.28125 C 21.085938 -27.28125 21.773438 -26.484375 22.703125 -25.890625 C 23.628906 -25.296875 24.953125 -25 26.671875 -25 C 28.597656 -25 30.140625 -25.476562 31.296875 -26.4375 C 32.453125 -27.40625 33.304688 -28.613281 33.859375 -30.0625 C 34.421875 -31.519531 34.773438 -33.082031 34.921875 -34.75 C 35.066406 -36.425781 35.140625 -38.007812 35.140625 -39.5 C 35.140625 -40.539062 35.140625 -41.800781 35.140625 -43.28125 C 35.140625 -44.769531 35.15625 -46.332031 35.1875 -47.96875 C 35.226562 -49.613281 35.378906 -51.234375 35.640625 -52.828125 C 35.898438 -54.429688 36.3125 -55.882812 36.875 -57.1875 C 37.4375 -58.488281 38.179688 -59.546875 39.109375 -60.359375 C 40.035156 -61.179688 41.242188 -61.59375 42.734375 -61.59375 C 44.585938 -61.59375 46.179688 -60.863281 47.515625 -59.40625 C 48.859375 -57.957031 49.992188 -56.0625 50.921875 -53.71875 C 51.859375 -51.375 52.601562 -48.789062 53.15625 -45.96875 C 53.71875 -43.144531 54.144531 -40.335938 54.4375 -37.546875 C 54.738281 -34.753906 54.945312 -32.1875 55.0625 -29.84375 C 55.175781 -27.5 55.234375 -25.660156 55.234375 -24.328125 C 55.234375 -21.203125 55.117188 -17.648438 54.890625 -13.671875 C 54.671875 -9.691406 54.242188 -5.597656 53.609375 -1.390625 C 52.972656 2.804688 52.023438 6.929688 50.765625 10.984375 C 49.503906 15.046875 47.847656 18.675781 45.796875 21.875 C 43.753906 25.070312 41.242188 27.632812 38.265625 29.5625 C 35.296875 31.5 31.726562 32.46875 27.5625 32.46875 Z M 27.5625 32.46875 "/></g></g></g><g fill="#3d3b3a" fill-opacity="1"><g transform="translate(273.641038, 186.276911)"><g><path d="M 50.09375 -19.859375 C 50.09375 -17.328125 49.289062 -14.851562 47.6875 -12.4375 C 46.09375 -10.019531 44.085938 -7.863281 41.671875 -5.96875 C 39.253906 -4.070312 36.671875 -2.546875 33.921875 -1.390625 C 31.171875 -0.242188 28.640625 0.328125 26.328125 0.328125 C 22.390625 0.328125 18.875 -0.65625 15.78125 -2.625 C 12.695312 -4.59375 10.113281 -7.101562 8.03125 -10.15625 C 5.945312 -13.207031 4.363281 -16.570312 3.28125 -20.25 C 2.207031 -23.925781 1.671875 -27.515625 1.671875 -31.015625 C 1.671875 -34.734375 2.191406 -38.710938 3.234375 -42.953125 C 4.273438 -47.191406 5.851562 -51.097656 7.96875 -54.671875 C 10.09375 -58.242188 12.769531 -61.21875 16 -63.59375 C 19.238281 -65.976562 23.09375 -67.171875 27.5625 -67.171875 C 30.09375 -67.171875 32.507812 -66.738281 34.8125 -65.875 C 37.113281 -65.019531 39.117188 -63.8125 40.828125 -62.25 C 42.546875 -60.695312 43.925781 -58.835938 44.96875 -56.671875 C 46.007812 -54.515625 46.53125 -52.097656 46.53125 -49.421875 C 46.53125 -45.929688 45.785156 -42.660156 44.296875 -39.609375 C 42.804688 -36.554688 40.832031 -33.914062 38.375 -31.6875 C 35.925781 -29.457031 33.101562 -27.65625 29.90625 -26.28125 C 26.707031 -24.90625 23.429688 -24.140625 20.078125 -23.984375 C 20.378906 -21.828125 21.253906 -20.265625 22.703125 -19.296875 C 24.148438 -18.335938 25.878906 -17.859375 27.890625 -17.859375 C 29.378906 -17.859375 30.828125 -18.226562 32.234375 -18.96875 C 33.648438 -19.707031 35.023438 -20.539062 36.359375 -21.46875 C 37.703125 -22.40625 39.023438 -23.242188 40.328125 -23.984375 C 41.628906 -24.734375 42.953125 -25.109375 44.296875 -25.109375 C 45.785156 -25.109375 47.125 -24.625 48.3125 -23.65625 C 49.5 -22.6875 50.09375 -21.421875 50.09375 -19.859375 Z M 32.015625 -47.1875 C 32.015625 -48.15625 31.753906 -49.160156 31.234375 -50.203125 C 30.710938 -51.242188 29.894531 -51.765625 28.78125 -51.765625 C 27.144531 -51.765625 25.769531 -51.335938 24.65625 -50.484375 C 23.539062 -49.628906 22.609375 -48.550781 21.859375 -47.25 C 21.117188 -45.945312 20.546875 -44.550781 20.140625 -43.0625 C 19.734375 -41.570312 19.488281 -40.195312 19.40625 -38.9375 C 20.445312 -39.164062 21.691406 -39.460938 23.140625 -39.828125 C 24.597656 -40.203125 25.976562 -40.703125 27.28125 -41.328125 C 28.582031 -41.960938 29.695312 -42.765625 30.625 -43.734375 C 31.550781 -44.703125 32.015625 -45.851562 32.015625 -47.1875 Z M 32.015625 -47.1875 "/></g></g></g><g fill="#3d3b3a" fill-opacity="1"><g transform="translate(331.358721, 186.276911)"><g><path d="M 35.03125 3.125 C 33.769531 3.125 32.765625 2.546875 32.015625 1.390625 C 31.273438 0.242188 30.71875 -1.070312 30.34375 -2.5625 C 29.976562 -4.050781 29.738281 -5.554688 29.625 -7.078125 C 29.507812 -8.609375 29.453125 -9.78125 29.453125 -10.59375 C 29.453125 -12.832031 29.582031 -15.066406 29.84375 -17.296875 C 30.101562 -19.523438 30.398438 -21.753906 30.734375 -23.984375 C 31.066406 -26.210938 31.363281 -28.441406 31.625 -30.671875 C 31.882812 -32.910156 32.015625 -35.144531 32.015625 -37.375 C 32.015625 -38.269531 31.976562 -39.238281 31.90625 -40.28125 C 31.832031 -41.320312 31.664062 -42.304688 31.40625 -43.234375 C 31.144531 -44.160156 30.71875 -44.921875 30.125 -45.515625 C 29.53125 -46.117188 28.75 -46.421875 27.78125 -46.421875 C 27.113281 -46.421875 26.367188 -45.878906 25.546875 -44.796875 C 24.734375 -43.710938 23.972656 -42.484375 23.265625 -41.109375 C 22.554688 -39.734375 21.957031 -38.359375 21.46875 -36.984375 C 20.988281 -35.609375 20.75 -34.585938 20.75 -33.921875 C 20.75 -32.285156 20.765625 -30.628906 20.796875 -28.953125 C 20.835938 -27.273438 20.859375 -25.582031 20.859375 -23.875 L 20.859375 -17.40625 C 20.785156 -16.0625 20.675781 -14.679688 20.53125 -13.265625 C 20.382812 -11.859375 20.160156 -10.488281 19.859375 -9.15625 C 19.640625 -7.8125 19.304688 -6.523438 18.859375 -5.296875 C 18.410156 -4.066406 17.832031 -2.988281 17.125 -2.0625 C 16.414062 -1.132812 15.578125 -0.375 14.609375 0.21875 C 13.648438 0.8125 12.5 1.109375 11.15625 1.109375 C 9.664062 1.109375 8.4375 0.628906 7.46875 -0.328125 C 6.507812 -1.296875 5.726562 -2.539062 5.125 -4.0625 C 4.53125 -5.59375 4.101562 -7.304688 3.84375 -9.203125 C 3.582031 -11.097656 3.394531 -12.957031 3.28125 -14.78125 C 3.175781 -16.601562 3.140625 -18.273438 3.171875 -19.796875 C 3.210938 -21.328125 3.234375 -22.539062 3.234375 -23.4375 L 3.234375 -28.671875 C 3.234375 -31.492188 3.175781 -34.28125 3.0625 -37.03125 C 2.957031 -39.789062 2.90625 -42.546875 2.90625 -45.296875 C 2.90625 -46.785156 2.921875 -48.679688 2.953125 -50.984375 C 2.992188 -53.296875 3.273438 -55.546875 3.796875 -57.734375 C 4.316406 -59.929688 5.171875 -61.8125 6.359375 -63.375 C 7.546875 -64.9375 9.296875 -65.71875 11.609375 -65.71875 C 12.648438 -65.71875 13.578125 -65.378906 14.390625 -64.703125 C 15.210938 -64.035156 15.9375 -63.21875 16.5625 -62.25 C 17.195312 -61.289062 17.71875 -60.25 18.125 -59.125 C 18.539062 -58.007812 18.859375 -57.046875 19.078125 -56.234375 C 19.816406 -57.273438 20.6875 -58.28125 21.6875 -59.25 C 22.695312 -60.21875 23.832031 -61.070312 25.09375 -61.8125 C 26.363281 -62.550781 27.78125 -63.144531 29.34375 -63.59375 C 30.90625 -64.039062 32.691406 -64.265625 34.703125 -64.265625 C 38.492188 -64.265625 41.445312 -63.351562 43.5625 -61.53125 C 45.6875 -59.707031 47.25 -57.4375 48.25 -54.71875 C 49.257812 -52.007812 49.875 -49.09375 50.09375 -45.96875 C 50.320312 -42.84375 50.4375 -40.015625 50.4375 -37.484375 C 50.4375 -36.222656 50.320312 -34.34375 50.09375 -31.84375 C 49.875 -29.351562 49.519531 -26.601562 49.03125 -23.59375 C 48.550781 -20.582031 47.898438 -17.492188 47.078125 -14.328125 C 46.265625 -11.171875 45.300781 -8.289062 44.1875 -5.6875 C 43.070312 -3.082031 41.75 -0.960938 40.21875 0.671875 C 38.695312 2.304688 36.96875 3.125 35.03125 3.125 Z M 35.03125 3.125 "/></g></g></g><path fill="#00bf63" d="M 112.253906 41.242188 C 112.039062 39.648438 111.824219 38.054688 111.613281 36.464844 C 110.757812 33.417969 109.214844 30.777344 106.988281 28.527344 C 105.773438 27.589844 104.5625 26.65625 103.347656 25.714844 C 100.542969 24.089844 97.515625 23.273438 94.269531 23.261719 C 84.496094 24.265625 74.6875 24.976562 64.867188 25.390625 C 55.046875 25.808594 45.214844 25.921875 35.386719 25.75 C 29.847656 25.644531 24.316406 25.449219 18.785156 25.164062 C 16.3125 25.074219 14.003906 25.585938 11.859375 26.714844 C 9.632812 27.441406 7.703125 28.675781 6.074219 30.433594 C 4.320312 32.058594 3.082031 33.988281 2.359375 36.21875 C 1.230469 38.359375 0.71875 40.667969 0.808594 43.140625 C 1.023438 44.734375 1.238281 46.328125 1.449219 47.921875 C 2.304688 50.964844 3.847656 53.609375 6.074219 55.855469 C 7.289062 56.796875 8.5 57.730469 9.714844 58.667969 C 12.519531 60.292969 15.546875 61.109375 18.792969 61.125 C 25.375 61.46875 31.953125 61.679688 38.542969 61.757812 C 37.804688 76.804688 37.070312 91.855469 36.332031 106.894531 C 35.542969 123.019531 34.753906 139.148438 33.96875 155.269531 C 33.523438 164.367188 33.082031 173.46875 32.636719 182.5625 C 32.542969 185.035156 33.054688 187.34375 34.183594 189.488281 C 34.910156 191.714844 36.144531 193.644531 37.902344 195.269531 C 39.527344 197.027344 41.457031 198.265625 43.6875 198.988281 C 45.828125 200.117188 48.136719 200.628906 50.609375 200.539062 C 52.203125 200.324219 53.796875 200.109375 55.390625 199.894531 C 58.4375 199.042969 61.078125 197.5 63.328125 195.269531 C 64.265625 194.058594 65.199219 192.847656 66.136719 191.628906 C 67.761719 188.824219 68.578125 185.800781 68.59375 182.554688 C 69.382812 166.347656 70.179688 150.140625 70.96875 133.925781 C 71.761719 117.804688 72.550781 101.675781 73.335938 85.550781 C 73.734375 77.316406 74.136719 69.078125 74.546875 60.84375 C 75.609375 60.78125 76.671875 60.710938 77.734375 60.636719 C 83.257812 60.253906 88.777344 59.78125 94.285156 59.21875 C 96.757812 59.308594 99.0625 58.796875 101.207031 57.671875 C 103.4375 56.945312 105.367188 55.707031 106.992188 53.953125 C 108.75 52.328125 109.984375 50.398438 110.710938 48.167969 C 111.832031 46.03125 112.34375 43.71875 112.253906 41.242188 Z M 112.253906 41.242188 " fill-opacity="1" fill-rule="nonzero"/><g clip-path="url(#b8e38835d5)"><path fill="#000000" d="M 50.046875 201.261719 C 47.695312 201.261719 45.460938 200.71875 43.402344 199.648438 C 41.09375 198.890625 39.074219 197.589844 37.390625 195.777344 C 35.582031 194.09375 34.28125 192.070312 33.515625 189.765625 C 32.355469 187.535156 31.820312 185.101562 31.914062 182.535156 C 31.914062 182.535156 31.914062 182.53125 31.914062 182.53125 L 37.792969 62.457031 C 31.46875 62.375 25.074219 62.167969 18.765625 61.835938 C 15.417969 61.824219 12.25 60.960938 9.355469 59.285156 C 9.328125 59.269531 9.300781 59.25 9.277344 59.230469 L 5.640625 56.421875 C 5.617188 56.402344 5.597656 56.382812 5.570312 56.355469 C 3.265625 54.035156 1.652344 51.265625 0.765625 48.117188 C 0.757812 48.085938 0.75 48.050781 0.746094 48.019531 L 0.105469 43.238281 C 0.105469 43.21875 0.0976562 43.191406 0.0976562 43.167969 C 0 40.597656 0.539062 38.167969 1.695312 35.9375 C 2.453125 33.640625 3.757812 31.609375 5.570312 29.925781 C 7.253906 28.121094 9.28125 26.816406 11.582031 26.054688 C 13.808594 24.894531 16.246094 24.355469 18.8125 24.453125 C 18.816406 24.453125 18.816406 24.453125 18.824219 24.453125 C 24.34375 24.746094 29.921875 24.9375 35.402344 25.035156 C 45.167969 25.210938 55.074219 25.09375 64.835938 24.679688 C 74.578125 24.265625 84.457031 23.554688 94.199219 22.546875 C 94.226562 22.546875 94.25 22.542969 94.277344 22.542969 C 97.632812 22.554688 100.804688 23.410156 103.703125 25.09375 C 103.726562 25.109375 103.753906 25.125 103.78125 25.144531 L 107.421875 27.957031 C 107.445312 27.976562 107.464844 27.996094 107.492188 28.023438 C 109.796875 30.339844 111.410156 33.113281 112.296875 36.261719 C 112.304688 36.292969 112.3125 36.328125 112.316406 36.359375 L 112.957031 41.140625 C 112.957031 41.160156 112.964844 41.183594 112.964844 41.210938 C 113.0625 43.78125 112.523438 46.210938 111.367188 48.441406 C 110.609375 50.738281 109.304688 52.765625 107.492188 54.453125 C 105.808594 56.257812 103.78125 57.5625 101.480469 58.324219 C 99.265625 59.476562 96.847656 60.015625 94.304688 59.933594 C 88.804688 60.496094 83.246094 60.976562 77.777344 61.351562 C 76.960938 61.410156 76.121094 61.460938 75.226562 61.519531 L 69.304688 182.582031 C 69.292969 185.929688 68.429688 189.097656 66.753906 191.992188 C 66.738281 192.019531 66.722656 192.046875 66.703125 192.070312 L 63.890625 195.710938 C 63.871094 195.738281 63.851562 195.757812 63.824219 195.78125 C 61.507812 198.089844 58.734375 199.703125 55.585938 200.589844 C 55.554688 200.597656 55.519531 200.601562 55.488281 200.609375 L 50.707031 201.25 C 50.6875 201.25 50.664062 201.257812 50.644531 201.257812 C 50.4375 201.257812 50.242188 201.261719 50.046875 201.261719 Z M 33.339844 182.59375 C 33.257812 184.933594 33.75 187.136719 34.804688 189.15625 C 34.824219 189.1875 34.835938 189.226562 34.851562 189.265625 C 35.535156 191.363281 36.722656 193.210938 38.375 194.753906 C 38.386719 194.765625 38.398438 194.777344 38.414062 194.792969 C 39.949219 196.445312 41.792969 197.636719 43.898438 198.316406 C 43.9375 198.328125 43.976562 198.339844 44.011719 198.359375 C 46.019531 199.417969 48.21875 199.910156 50.546875 199.832031 L 55.242188 199.203125 C 58.117188 198.386719 60.65625 196.910156 62.78125 194.804688 L 65.535156 191.242188 C 67.078125 188.574219 67.859375 185.652344 67.867188 182.5625 C 67.867188 182.550781 67.867188 182.542969 67.867188 182.53125 L 73.820312 60.820312 C 73.839844 60.457031 74.125 60.164062 74.488281 60.144531 C 75.628906 60.074219 76.671875 60.007812 77.667969 59.9375 C 83.136719 59.5625 88.699219 59.082031 94.199219 58.519531 C 94.230469 58.511719 94.265625 58.511719 94.296875 58.519531 C 96.636719 58.609375 98.84375 58.113281 100.863281 57.054688 C 100.898438 57.035156 100.9375 57.023438 100.976562 57.011719 C 103.074219 56.324219 104.921875 55.136719 106.460938 53.488281 C 106.476562 53.472656 106.488281 53.460938 106.5 53.449219 C 108.152344 51.914062 109.34375 50.066406 110.023438 47.960938 C 110.039062 47.921875 110.050781 47.882812 110.070312 47.851562 C 111.125 45.84375 111.617188 43.640625 111.539062 41.316406 L 110.910156 36.617188 C 110.09375 33.742188 108.617188 31.203125 106.511719 29.078125 L 102.949219 26.324219 C 100.289062 24.789062 97.386719 24.007812 94.308594 23.992188 C 84.554688 24.996094 74.65625 25.714844 64.902344 26.125 C 55.105469 26.539062 45.175781 26.65625 35.375 26.480469 C 29.882812 26.382812 24.285156 26.183594 18.753906 25.890625 C 16.421875 25.808594 14.210938 26.300781 12.191406 27.355469 C 12.160156 27.375 12.121094 27.386719 12.082031 27.402344 C 9.980469 28.085938 8.136719 29.273438 6.59375 30.925781 C 6.582031 30.9375 6.570312 30.949219 6.554688 30.964844 C 4.902344 32.5 3.710938 34.34375 3.03125 36.449219 C 3.019531 36.488281 3.003906 36.527344 2.984375 36.558594 C 1.929688 38.566406 1.4375 40.769531 1.515625 43.097656 L 2.144531 47.792969 C 2.960938 50.667969 4.4375 53.207031 6.542969 55.332031 L 10.105469 58.085938 C 12.773438 59.628906 15.695312 60.410156 18.785156 60.417969 C 18.796875 60.417969 18.8125 60.417969 18.816406 60.417969 C 25.355469 60.761719 31.988281 60.96875 38.542969 61.046875 C 38.738281 61.046875 38.917969 61.128906 39.054688 61.273438 C 39.183594 61.414062 39.253906 61.601562 39.25 61.796875 Z M 33.339844 182.59375 " fill-opacity="1" fill-rule="nonzero"/></g><path fill="#fcffeb" d="M 50.191406 22.445312 C 50.191406 23.371094 50.109375 24.285156 49.945312 25.195312 C 49.785156 26.101562 49.546875 26.980469 49.226562 27.835938 C 48.910156 28.691406 48.523438 29.503906 48.0625 30.273438 C 47.601562 31.042969 47.078125 31.753906 46.488281 32.40625 C 45.902344 33.0625 45.265625 33.644531 44.574219 34.160156 C 43.886719 34.671875 43.15625 35.109375 42.390625 35.460938 C 41.625 35.816406 40.835938 36.082031 40.023438 36.261719 C 39.207031 36.445312 38.386719 36.535156 37.558594 36.535156 C 36.730469 36.535156 35.90625 36.445312 35.09375 36.261719 C 34.28125 36.082031 33.492188 35.816406 32.722656 35.460938 C 31.957031 35.109375 31.230469 34.671875 30.539062 34.160156 C 29.851562 33.644531 29.210938 33.0625 28.625 32.40625 C 28.039062 31.753906 27.515625 31.042969 27.054688 30.273438 C 26.59375 29.503906 26.207031 28.691406 25.886719 27.835938 C 25.570312 26.980469 25.332031 26.101562 25.167969 25.195312 C 25.007812 24.285156 24.925781 23.371094 24.925781 22.445312 C 24.925781 21.519531 25.007812 20.605469 25.167969 19.695312 C 25.332031 18.789062 25.570312 17.90625 25.886719 17.054688 C 26.207031 16.199219 26.59375 15.386719 27.054688 14.617188 C 27.515625 13.847656 28.039062 13.136719 28.625 12.484375 C 29.210938 11.828125 29.851562 11.246094 30.539062 10.730469 C 31.230469 10.214844 31.957031 9.78125 32.722656 9.429688 C 33.492188 9.074219 34.28125 8.808594 35.09375 8.625 C 35.90625 8.445312 36.730469 8.355469 37.558594 8.355469 C 38.386719 8.355469 39.207031 8.445312 40.023438 8.625 C 40.835938 8.808594 41.625 9.074219 42.390625 9.429688 C 43.15625 9.78125 43.886719 10.214844 44.574219 10.730469 C 45.265625 11.246094 45.902344 11.828125 46.488281 12.484375 C 47.078125 13.136719 47.601562 13.847656 48.0625 14.617188 C 48.523438 15.386719 48.910156 16.199219 49.226562 17.054688 C 49.546875 17.90625 49.785156 18.789062 49.945312 19.695312 C 50.109375 20.605469 50.191406 21.519531 50.191406 22.445312 Z M 50.191406 22.445312 " fill-opacity="1" fill-rule="nonzero"/><path fill="#000000" d="M 42.351562 22.445312 C 42.351562 22.742188 42.324219 23.035156 42.265625 23.324219 C 42.207031 23.613281 42.121094 23.894531 42.007812 24.167969 C 41.894531 24.441406 41.757812 24.699219 41.59375 24.945312 C 41.429688 25.191406 41.242188 25.417969 41.03125 25.628906 C 40.824219 25.835938 40.597656 26.023438 40.351562 26.1875 C 40.105469 26.351562 39.84375 26.492188 39.574219 26.605469 C 39.300781 26.71875 39.019531 26.804688 38.726562 26.859375 C 38.4375 26.917969 38.144531 26.945312 37.847656 26.945312 C 37.554688 26.945312 37.261719 26.917969 36.972656 26.859375 C 36.679688 26.804688 36.398438 26.71875 36.125 26.605469 C 35.851562 26.492188 35.59375 26.351562 35.347656 26.1875 C 35.101562 26.023438 34.875 25.835938 34.667969 25.628906 C 34.457031 25.417969 34.269531 25.191406 34.105469 24.945312 C 33.941406 24.699219 33.804688 24.441406 33.691406 24.167969 C 33.578125 23.894531 33.492188 23.613281 33.433594 23.324219 C 33.375 23.035156 33.347656 22.742188 33.347656 22.445312 C 33.347656 22.148438 33.375 21.855469 33.433594 21.566406 C 33.492188 21.277344 33.578125 20.996094 33.691406 20.722656 C 33.804688 20.449219 33.941406 20.191406 34.105469 19.945312 C 34.269531 19.699219 34.457031 19.472656 34.667969 19.261719 C 34.875 19.050781 35.101562 18.867188 35.347656 18.703125 C 35.59375 18.539062 35.851562 18.398438 36.125 18.285156 C 36.398438 18.171875 36.679688 18.085938 36.972656 18.03125 C 37.261719 17.972656 37.554688 17.941406 37.847656 17.941406 C 38.144531 17.941406 38.4375 17.972656 38.726562 18.03125 C 39.019531 18.085938 39.300781 18.171875 39.574219 18.285156 C 39.84375 18.398438 40.105469 18.539062 40.351562 18.703125 C 40.597656 18.867188 40.824219 19.050781 41.03125 19.261719 C 41.242188 19.472656 41.429688 19.699219 41.59375 19.945312 C 41.757812 20.191406 41.894531 20.449219 42.007812 20.722656 C 42.121094 20.996094 42.207031 21.277344 42.265625 21.566406 C 42.324219 21.855469 42.351562 22.148438 42.351562 22.445312 Z M 42.351562 22.445312 " fill-opacity="1" fill-rule="nonzero"/><path fill="#fcffeb" d="M 92.425781 22.445312 C 92.425781 23.371094 92.34375 24.285156 92.183594 25.195312 C 92.019531 26.101562 91.78125 26.980469 91.460938 27.835938 C 91.144531 28.691406 90.757812 29.503906 90.296875 30.273438 C 89.835938 31.042969 89.3125 31.753906 88.726562 32.40625 C 88.136719 33.0625 87.5 33.644531 86.8125 34.160156 C 86.121094 34.671875 85.394531 35.109375 84.625 35.460938 C 83.859375 35.816406 83.070312 36.082031 82.257812 36.261719 C 81.445312 36.445312 80.621094 36.535156 79.792969 36.535156 C 78.964844 36.535156 78.140625 36.445312 77.328125 36.261719 C 76.515625 36.082031 75.726562 35.816406 74.957031 35.460938 C 74.191406 35.109375 73.464844 34.671875 72.773438 34.160156 C 72.085938 33.644531 71.449219 33.0625 70.859375 32.40625 C 70.273438 31.753906 69.75 31.042969 69.289062 30.273438 C 68.828125 29.503906 68.441406 28.691406 68.121094 27.835938 C 67.804688 26.980469 67.566406 26.101562 67.402344 25.195312 C 67.242188 24.285156 67.160156 23.371094 67.160156 22.445312 C 67.160156 21.519531 67.242188 20.605469 67.402344 19.695312 C 67.566406 18.789062 67.804688 17.90625 68.121094 17.054688 C 68.441406 16.199219 68.828125 15.386719 69.289062 14.617188 C 69.75 13.847656 70.273438 13.136719 70.859375 12.484375 C 71.449219 11.828125 72.085938 11.246094 72.773438 10.730469 C 73.464844 10.214844 74.191406 9.78125 74.957031 9.429688 C 75.726562 9.074219 76.515625 8.808594 77.328125 8.625 C 78.140625 8.445312 78.964844 8.355469 79.792969 8.355469 C 80.621094 8.355469 81.445312 8.445312 82.257812 8.625 C 83.070312 8.808594 83.859375 9.074219 84.625 9.429688 C 85.394531 9.78125 86.121094 10.214844 86.808594 10.730469 C 87.5 11.246094 88.136719 11.828125 88.726562 12.484375 C 89.3125 13.136719 89.835938 13.847656 90.296875 14.617188 C 90.757812 15.386719 91.144531 16.199219 91.460938 17.054688 C 91.78125 17.90625 92.019531 18.789062 92.183594 19.695312 C 92.34375 20.605469 92.425781 21.519531 92.425781 22.445312 Z M 92.425781 22.445312 " fill-opacity="1" fill-rule="nonzero"/><g clip-path="url(#50f8460fd2)"><path fill="#000000" d="M 37.539062 37.214844 C 33.957031 37.214844 30.59375 35.667969 28.066406 32.855469 C 25.5625 30.0625 24.179688 26.363281 24.179688 22.425781 C 24.179688 18.488281 25.5625 14.789062 28.066406 11.996094 C 30.59375 9.191406 33.957031 7.644531 37.539062 7.644531 C 41.121094 7.644531 44.484375 9.191406 47.007812 12.003906 C 49.515625 14.796875 50.894531 18.492188 50.894531 22.433594 C 50.894531 26.371094 49.515625 30.070312 47.007812 32.863281 C 44.488281 35.667969 41.128906 37.214844 37.539062 37.214844 Z M 37.539062 9.070312 C 30.957031 9.070312 25.605469 15.058594 25.605469 22.433594 C 25.605469 29.804688 30.957031 35.796875 37.539062 35.796875 C 44.121094 35.796875 49.476562 29.796875 49.476562 22.433594 C 49.476562 15.066406 44.121094 9.070312 37.539062 9.070312 Z M 37.539062 9.070312 " fill-opacity="1" fill-rule="nonzero"/></g><g clip-path="url(#18d706a690)"><path fill="#000000" d="M 79.8125 37.214844 C 76.230469 37.214844 72.867188 35.667969 70.339844 32.855469 C 67.835938 30.0625 66.457031 26.363281 66.457031 22.425781 C 66.457031 18.488281 67.835938 14.789062 70.339844 11.996094 C 72.867188 9.183594 76.230469 7.636719 79.8125 7.636719 C 83.394531 7.636719 86.757812 9.183594 89.28125 11.996094 C 91.789062 14.789062 93.167969 18.488281 93.167969 22.425781 C 93.167969 26.363281 91.789062 30.0625 89.28125 32.855469 C 86.757812 35.667969 83.394531 37.214844 79.8125 37.214844 Z M 79.8125 9.070312 C 73.230469 9.070312 67.878906 15.058594 67.878906 22.433594 C 67.878906 29.804688 73.230469 35.796875 79.8125 35.796875 C 86.394531 35.796875 91.746094 29.804688 91.746094 22.433594 C 91.746094 15.058594 86.394531 9.070312 79.8125 9.070312 Z M 79.8125 9.070312 " fill-opacity="1" fill-rule="nonzero"/></g><path fill="#000000" d="M 84.652344 22.445312 C 84.652344 22.742188 84.621094 23.035156 84.566406 23.324219 C 84.507812 23.613281 84.421875 23.894531 84.308594 24.167969 C 84.195312 24.441406 84.054688 24.699219 83.890625 24.945312 C 83.726562 25.191406 83.542969 25.417969 83.332031 25.628906 C 83.125 25.835938 82.894531 26.023438 82.648438 26.1875 C 82.40625 26.351562 82.144531 26.492188 81.871094 26.605469 C 81.597656 26.71875 81.316406 26.804688 81.027344 26.859375 C 80.738281 26.917969 80.445312 26.945312 80.148438 26.945312 C 79.851562 26.945312 79.5625 26.917969 79.269531 26.859375 C 78.980469 26.804688 78.699219 26.71875 78.425781 26.605469 C 78.152344 26.492188 77.894531 26.351562 77.648438 26.1875 C 77.402344 26.023438 77.175781 25.835938 76.964844 25.628906 C 76.757812 25.417969 76.570312 25.191406 76.40625 24.945312 C 76.242188 24.699219 76.101562 24.441406 75.988281 24.167969 C 75.875 23.894531 75.792969 23.613281 75.734375 23.324219 C 75.675781 23.035156 75.648438 22.742188 75.648438 22.445312 C 75.648438 22.148438 75.675781 21.855469 75.734375 21.566406 C 75.792969 21.277344 75.875 20.996094 75.988281 20.722656 C 76.101562 20.449219 76.242188 20.191406 76.40625 19.945312 C 76.570312 19.699219 76.757812 19.472656 76.964844 19.261719 C 77.175781 19.050781 77.402344 18.867188 77.648438 18.703125 C 77.894531 18.539062 78.152344 18.398438 78.425781 18.285156 C 78.699219 18.171875 78.980469 18.085938 79.269531 18.03125 C 79.5625 17.972656 79.851562 17.941406 80.148438 17.941406 C 80.445312 17.941406 80.738281 17.972656 81.027344 18.03125 C 81.316406 18.085938 81.597656 18.171875 81.871094 18.285156 C 82.144531 18.398438 82.40625 18.539062 82.648438 18.703125 C 82.894531 18.867188 83.125 19.050781 83.332031 19.261719 C 83.542969 19.472656 83.726562 19.699219 83.890625 19.945312 C 84.054688 20.191406 84.195312 20.449219 84.308594 20.722656 C 84.421875 20.996094 84.507812 21.277344 84.566406 21.566406 C 84.621094 21.855469 84.652344 22.148438 84.652344 22.445312 Z M 84.652344 22.445312 " fill-opacity="1" fill-rule="nonzero"/><path fill="#000000" d="M 59.238281 62.984375 C 56.886719 62.984375 54.503906 62.03125 52.144531 60.144531 C 50.332031 58.695312 48.523438 56.679688 46.777344 54.167969 C 43.828125 49.929688 42.078125 45.757812 42.007812 45.582031 C 41.808594 45.097656 42.035156 44.546875 42.519531 44.347656 C 43.003906 44.144531 43.554688 44.371094 43.757812 44.859375 C 43.777344 44.898438 45.519531 49.042969 48.351562 53.117188 C 49.988281 55.476562 51.671875 57.347656 53.34375 58.679688 C 55.347656 60.28125 57.328125 61.089844 59.238281 61.089844 C 60.308594 61.089844 61.382812 60.832031 62.433594 60.328125 C 63.605469 59.761719 64.785156 58.882812 65.929688 57.695312 C 68.558594 54.996094 71.125 50.675781 73.546875 44.859375 C 73.75 44.371094 74.304688 44.144531 74.785156 44.347656 C 75.269531 44.546875 75.5 45.105469 75.296875 45.582031 C 74.007812 48.679688 72.660156 51.394531 71.300781 53.65625 C 70.003906 55.8125 68.652344 57.613281 67.289062 59.019531 C 64.738281 61.648438 62.023438 62.984375 59.238281 62.984375 Z M 59.238281 62.984375 " fill-opacity="1" fill-rule="nonzero"/><g fill="#3d3b3a" fill-opacity="1"><g transform="translate(420.970302, 186.276911)"><g><path d="M 44.734375 -42.84375 C 44.734375 -42.46875 44.695312 -42.078125 44.625 -41.671875 C 44.550781 -41.265625 44.441406 -40.875 44.296875 -40.5 C 43.628906 -38.789062 42.585938 -37.359375 41.171875 -36.203125 C 39.753906 -35.046875 38.082031 -34.46875 36.15625 -34.46875 C 33.25 -34.46875 31.273438 -35.921875 30.234375 -38.828125 C 30.085938 -39.203125 30.015625 -39.628906 30.015625 -40.109375 C 30.015625 -40.585938 29.976562 -41.085938 29.90625 -41.609375 L 29.90625 -44.859375 C 29.75 -45.898438 29.484375 -46.71875 29.109375 -47.3125 C 28.742188 -47.90625 28.113281 -48.203125 27.21875 -48.203125 C 25.957031 -48.203125 24.75 -47.398438 23.59375 -45.796875 C 22.445312 -44.203125 21.441406 -42.304688 20.578125 -40.109375 C 19.722656 -37.910156 19.035156 -35.660156 18.515625 -33.359375 C 17.992188 -31.054688 17.734375 -29.195312 17.734375 -27.78125 C 17.734375 -26.664062 17.804688 -25.304688 17.953125 -23.703125 C 18.109375 -22.109375 18.410156 -20.566406 18.859375 -19.078125 C 19.304688 -17.585938 19.921875 -16.300781 20.703125 -15.21875 C 21.484375 -14.144531 22.503906 -13.609375 23.765625 -13.609375 C 25.023438 -13.609375 26.191406 -14 27.265625 -14.78125 C 28.347656 -15.5625 29.410156 -16.472656 30.453125 -17.515625 C 31.421875 -18.410156 32.484375 -19.335938 33.640625 -20.296875 C 34.796875 -21.265625 36.113281 -21.75 37.59375 -21.75 C 39.457031 -21.75 40.925781 -21.078125 42 -19.734375 C 43.082031 -18.398438 43.625 -16.878906 43.625 -15.171875 C 43.625 -12.640625 42.953125 -10.273438 41.609375 -8.078125 C 40.273438 -5.890625 38.601562 -3.992188 36.59375 -2.390625 C 34.582031 -0.796875 32.347656 0.460938 29.890625 1.390625 C 27.441406 2.328125 25.101562 2.796875 22.875 2.796875 C 18.851562 2.796875 15.445312 1.789062 12.65625 -0.21875 C 9.875 -2.226562 7.625 -4.773438 5.90625 -7.859375 C 4.195312 -10.953125 2.96875 -14.320312 2.21875 -17.96875 C 1.476562 -21.613281 1.109375 -25.070312 1.109375 -28.34375 C 1.109375 -32.132812 1.628906 -36.242188 2.671875 -40.671875 C 3.710938 -45.097656 5.3125 -49.207031 7.46875 -53 C 9.632812 -56.789062 12.40625 -59.953125 15.78125 -62.484375 C 19.164062 -65.015625 23.203125 -66.28125 27.890625 -66.28125 C 30.796875 -66.28125 33.304688 -65.644531 35.421875 -64.375 C 37.546875 -63.113281 39.296875 -61.457031 40.671875 -59.40625 C 42.046875 -57.363281 43.085938 -55.078125 43.796875 -52.546875 C 44.503906 -50.015625 44.859375 -47.523438 44.859375 -45.078125 C 44.859375 -44.703125 44.859375 -44.328125 44.859375 -43.953125 C 44.859375 -43.585938 44.816406 -43.21875 44.734375 -42.84375 Z M 44.734375 -42.84375 "/></g></g></g><g fill="#3d3b3a" fill-opacity="1"><g transform="translate(475.118101, 186.276911)"><g><path d="M 52.21875 -31.90625 C 52.21875 -27.8125 51.804688 -23.753906 50.984375 -19.734375 C 50.171875 -15.722656 48.796875 -12.132812 46.859375 -8.96875 C 44.921875 -5.8125 42.332031 -3.265625 39.09375 -1.328125 C 35.863281 0.597656 31.832031 1.5625 27 1.5625 C 22.238281 1.5625 18.257812 0.613281 15.0625 -1.28125 C 11.863281 -3.175781 9.316406 -5.6875 7.421875 -8.8125 C 5.523438 -11.9375 4.1875 -15.46875 3.40625 -19.40625 C 2.625 -23.351562 2.234375 -27.375 2.234375 -31.46875 C 2.234375 -35.925781 2.753906 -40.347656 3.796875 -44.734375 C 4.015625 -45.929688 4.441406 -47.585938 5.078125 -49.703125 C 5.710938 -51.828125 6.53125 -53.910156 7.53125 -55.953125 C 8.53125 -57.992188 9.679688 -59.757812 10.984375 -61.25 C 12.285156 -62.738281 13.71875 -63.484375 15.28125 -63.484375 C 16.769531 -63.484375 17.957031 -63.070312 18.84375 -62.25 C 19.738281 -61.4375 20.445312 -60.414062 20.96875 -59.1875 C 21.488281 -57.957031 21.820312 -56.65625 21.96875 -55.28125 C 22.125 -53.90625 22.203125 -52.660156 22.203125 -51.546875 C 22.203125 -49.835938 22.070312 -48.164062 21.8125 -46.53125 C 21.550781 -44.894531 21.269531 -43.253906 20.96875 -41.609375 C 20.675781 -39.378906 20.398438 -37.148438 20.140625 -34.921875 C 19.878906 -32.691406 19.75 -30.460938 19.75 -28.234375 C 19.75 -27.109375 19.800781 -25.859375 19.90625 -24.484375 C 20.019531 -23.109375 20.300781 -21.785156 20.75 -20.515625 C 21.195312 -19.253906 21.828125 -18.195312 22.640625 -17.34375 C 23.460938 -16.488281 24.617188 -16.0625 26.109375 -16.0625 C 28.046875 -16.0625 29.585938 -16.582031 30.734375 -17.625 C 31.890625 -18.664062 32.742188 -19.96875 33.296875 -21.53125 C 33.859375 -23.09375 34.210938 -24.765625 34.359375 -26.546875 C 34.515625 -28.335938 34.59375 -29.976562 34.59375 -31.46875 C 34.59375 -34.738281 34.367188 -37.953125 33.921875 -41.109375 C 33.472656 -44.273438 33.0625 -47.492188 32.6875 -50.765625 C 32.613281 -51.140625 32.578125 -51.660156 32.578125 -52.328125 C 32.578125 -53.441406 32.757812 -54.554688 33.125 -55.671875 C 33.5 -56.785156 34.019531 -57.789062 34.6875 -58.6875 C 35.363281 -59.582031 36.1875 -60.304688 37.15625 -60.859375 C 38.125 -61.421875 39.203125 -61.703125 40.390625 -61.703125 C 42.023438 -61.703125 43.472656 -61.125 44.734375 -59.96875 C 46.003906 -58.8125 47.066406 -57.320312 47.921875 -55.5 C 48.773438 -53.6875 49.476562 -51.644531 50.03125 -49.375 C 50.59375 -47.101562 51.039062 -44.867188 51.375 -42.671875 C 51.707031 -40.484375 51.929688 -38.421875 52.046875 -36.484375 C 52.160156 -34.546875 52.21875 -33.019531 52.21875 -31.90625 Z M 52.21875 -31.90625 "/></g></g></g><g fill="#3d3b3a" fill-opacity="1"><g transform="translate(537.298129, 186.276911)"><g><path d="M 50.765625 -15.734375 C 50.765625 -14.390625 50.707031 -12.640625 50.59375 -10.484375 C 50.488281 -8.328125 50.175781 -6.222656 49.65625 -4.171875 C 49.132812 -2.128906 48.3125 -0.367188 47.1875 1.109375 C 46.070312 2.597656 44.515625 3.34375 42.515625 3.34375 C 39.753906 3.34375 37.628906 2.445312 36.140625 0.65625 C 34.660156 -1.125 33.957031 -3.351562 34.03125 -6.03125 C 31.644531 -3.945312 28.945312 -2.304688 25.9375 -1.109375 C 22.925781 0.078125 19.859375 0.671875 16.734375 0.671875 C 14.578125 0.671875 12.53125 0.148438 10.59375 -0.890625 C 8.664062 -1.929688 6.957031 -3.269531 5.46875 -4.90625 C 3.976562 -6.539062 2.785156 -8.378906 1.890625 -10.421875 C 1.003906 -12.472656 0.5625 -14.503906 0.5625 -16.515625 C 0.5625 -20.085938 1.65625 -23.210938 3.84375 -25.890625 C 6.039062 -28.566406 8.738281 -30.851562 11.9375 -32.75 C 15.132812 -34.644531 18.535156 -36.148438 22.140625 -37.265625 C 25.753906 -38.378906 28.972656 -39.125 31.796875 -39.5 C 31.796875 -39.863281 31.8125 -40.195312 31.84375 -40.5 C 31.882812 -40.800781 31.90625 -41.132812 31.90625 -41.5 C 31.90625 -43.8125 31.269531 -45.671875 30 -47.078125 C 28.738281 -48.492188 26.957031 -49.203125 24.65625 -49.203125 C 22.800781 -49.203125 21.203125 -48.882812 19.859375 -48.25 C 18.523438 -47.625 17.257812 -46.921875 16.0625 -46.140625 C 14.875 -45.359375 13.6875 -44.648438 12.5 -44.015625 C 11.3125 -43.378906 9.972656 -43.0625 8.484375 -43.0625 C 6.847656 -43.0625 5.453125 -43.582031 4.296875 -44.625 C 3.140625 -45.664062 2.5625 -47.003906 2.5625 -48.640625 C 2.5625 -51.097656 3.285156 -53.332031 4.734375 -55.34375 C 6.191406 -57.351562 8.015625 -59.046875 10.203125 -60.421875 C 12.398438 -61.796875 14.78125 -62.875 17.34375 -63.65625 C 19.914062 -64.4375 22.28125 -64.828125 24.4375 -64.828125 C 26.445312 -64.828125 28.453125 -64.582031 30.453125 -64.09375 C 32.460938 -63.613281 34.359375 -62.867188 36.140625 -61.859375 C 37.929688 -60.859375 39.550781 -59.632812 41 -58.1875 C 42.445312 -56.738281 43.617188 -55.046875 44.515625 -53.109375 C 45.859375 -50.359375 46.9375 -47.4375 47.75 -44.34375 C 48.570312 -41.257812 49.203125 -38.097656 49.640625 -34.859375 C 50.085938 -31.628906 50.382812 -28.394531 50.53125 -25.15625 C 50.6875 -21.925781 50.765625 -18.785156 50.765625 -15.734375 Z M 32.90625 -19.296875 L 32.578125 -26.890625 C 32.429688 -26.890625 32.28125 -26.90625 32.125 -26.9375 C 31.976562 -26.976562 31.832031 -27 31.6875 -27 C 30.71875 -27 29.507812 -26.753906 28.0625 -26.265625 C 26.613281 -25.785156 25.21875 -25.117188 23.875 -24.265625 C 22.539062 -23.410156 21.40625 -22.460938 20.46875 -21.421875 C 19.539062 -20.378906 19.078125 -19.300781 19.078125 -18.1875 C 19.078125 -17.144531 19.445312 -16.4375 20.1875 -16.0625 C 20.9375 -15.695312 21.796875 -15.515625 22.765625 -15.515625 C 24.398438 -15.515625 26.144531 -15.941406 28 -16.796875 C 29.863281 -17.648438 31.5 -18.484375 32.90625 -19.296875 Z M 32.90625 -19.296875 "/></g></g></g><path fill="#ff552f" d="M 737.972656 127.304688 C 737.535156 124.414062 736.738281 121.566406 735.625 118.863281 C 733.972656 114.871094 732.347656 111.003906 729.792969 107.5 C 727.300781 104.078125 724.691406 100.695312 721.402344 97.992188 C 718.050781 95.238281 714.632812 92.628906 710.628906 90.902344 C 710.453125 90.824219 710.273438 90.746094 710.09375 90.667969 C 710.21875 90.421875 710.34375 90.179688 710.46875 89.933594 C 711.570312 87.695312 712.511719 85.390625 713.46875 83.09375 C 713.933594 81.988281 714.371094 80.871094 714.757812 79.742188 C 715.527344 77.480469 716.132812 75.152344 716.5 72.785156 C 717.058594 69.125 717.667969 65.394531 717.386719 61.683594 C 717.195312 59.164062 716.878906 56.632812 716.347656 54.15625 C 716.105469 53.027344 715.78125 51.921875 715.363281 50.84375 C 714.476562 48.554688 713.5625 46.175781 712.308594 44.039062 C 711.125 42.027344 709.578125 40.207031 708.136719 38.394531 C 706.042969 35.769531 703.261719 33.761719 700.566406 31.796875 C 697.792969 29.78125 694.625 28.554688 691.46875 27.269531 C 689.523438 26.476562 687.484375 25.902344 685.410156 25.578125 C 681.878906 25.03125 678.378906 24.5 674.824219 24.773438 C 671.148438 25.050781 667.375 25.546875 663.824219 26.605469 C 662.703125 26.9375 661.59375 27.332031 660.507812 27.773438 C 658.1875 28.722656 655.835938 29.648438 653.605469 30.796875 C 653.171875 31.019531 652.742188 31.246094 652.316406 31.484375 C 650.371094 30.472656 648.277344 30.003906 646.039062 30.089844 C 644.597656 30.285156 643.148438 30.480469 641.703125 30.667969 C 638.945312 31.441406 636.542969 32.832031 634.503906 34.847656 C 633.65625 35.945312 632.800781 37.035156 631.953125 38.136719 C 630.476562 40.671875 629.734375 43.398438 629.726562 46.332031 C 629.746094 64.304688 629.78125 82.277344 629.820312 100.246094 C 629.859375 118.128906 629.902344 136.011719 629.957031 153.890625 C 629.988281 163.980469 630.019531 174.066406 630.054688 184.148438 C 629.96875 186.382812 630.4375 188.46875 631.457031 190.40625 C 632.117188 192.421875 633.238281 194.164062 634.832031 195.632812 C 636.308594 197.21875 638.054688 198.335938 640.078125 198.992188 C 642.023438 200.007812 644.121094 200.476562 646.363281 200.390625 C 647.808594 200.195312 649.257812 200 650.699219 199.8125 C 653.460938 199.039062 655.863281 197.648438 657.898438 195.632812 C 658.746094 194.535156 659.601562 193.441406 660.449219 192.34375 C 661.777344 190.070312 662.511719 187.625 662.648438 185.023438 C 663.179688 185.246094 663.707031 185.460938 664.242188 185.679688 C 667.160156 186.871094 670.207031 187.75 673.320312 188.28125 C 677.773438 189.042969 682.328125 189.652344 686.851562 189.394531 C 689.777344 189.222656 692.695312 188.808594 695.574219 188.3125 C 697.105469 188.046875 698.628906 187.683594 700.117188 187.230469 C 702.792969 186.402344 705.371094 185.253906 707.929688 184.132812 C 709.320312 183.53125 710.675781 182.835938 711.988281 182.066406 C 713.25 181.332031 714.460938 180.527344 715.628906 179.65625 C 717.902344 177.964844 720.207031 176.257812 722.289062 174.320312 C 725.421875 171.40625 728.117188 167.957031 730.519531 164.445312 C 732.945312 160.890625 734.664062 156.90625 736.179688 152.902344 C 737.726562 148.820312 738.324219 144.511719 738.769531 140.1875 C 739.21875 135.847656 738.617188 131.601562 737.972656 127.304688 Z M 665.097656 61.851562 C 666.90625 60.59375 668.804688 59.460938 670.789062 58.492188 C 672.257812 57.972656 673.753906 57.550781 675.273438 57.238281 C 676.296875 57.179688 677.316406 57.171875 678.339844 57.21875 C 679.230469 57.414062 680.105469 57.65625 680.972656 57.933594 C 681.625 58.273438 682.257812 58.636719 682.871094 59.03125 C 683.210938 59.34375 683.535156 59.667969 683.851562 60 C 684.03125 60.292969 684.203125 60.585938 684.367188 60.886719 C 684.523438 61.398438 684.660156 61.910156 684.785156 62.433594 C 684.835938 63.523438 684.816406 64.617188 684.746094 65.714844 C 684.28125 68.046875 683.59375 70.335938 682.761719 72.570312 C 680.917969 76.503906 678.660156 80.242188 676.101562 83.75 C 674.515625 85.675781 672.832031 87.515625 671.0625 89.261719 C 669.066406 90.003906 667.109375 90.867188 665.167969 91.726562 C 664.234375 92.136719 663.324219 92.585938 662.429688 93.066406 C 662.414062 87.574219 662.410156 82.085938 662.394531 76.59375 C 662.390625 72.429688 662.382812 68.269531 662.375 64.101562 C 663.230469 63.53125 664.035156 62.867188 664.785156 62.125 C 664.890625 62.027344 664.992188 61.945312 665.097656 61.851562 Z M 697.988281 152.433594 C 696.375 153.539062 694.683594 154.535156 692.929688 155.390625 C 691.1875 156.011719 689.410156 156.492188 687.597656 156.847656 C 685.515625 157.003906 683.417969 156.996094 681.332031 156.828125 C 678.992188 156.386719 676.691406 155.757812 674.457031 154.945312 C 672.363281 153.9375 670.34375 152.773438 668.433594 151.445312 C 667.160156 150.363281 665.953125 149.203125 664.816406 147.976562 C 664.125 147.230469 663.367188 146.589844 662.550781 146.050781 C 662.539062 141.386719 662.527344 136.710938 662.511719 132.046875 C 662.945312 131.953125 663.375 131.84375 663.800781 131.714844 C 669.113281 129.542969 674.28125 127.25 679.117188 124.148438 C 681.75 122.464844 684.214844 120.574219 686.675781 118.660156 C 688.367188 118.542969 690.070312 118.539062 691.761719 118.65625 C 693.152344 118.933594 694.527344 119.304688 695.875 119.765625 C 697.003906 120.339844 698.085938 120.976562 699.136719 121.671875 C 700.21875 122.625 701.246094 123.652344 702.199219 124.738281 C 703.164062 126.15625 704.03125 127.636719 704.789062 129.171875 C 705.390625 130.863281 705.867188 132.585938 706.21875 134.339844 C 706.328125 135.894531 706.335938 137.453125 706.230469 139.011719 C 705.917969 140.554688 705.488281 142.066406 704.964844 143.542969 C 704.15625 145.175781 703.230469 146.742188 702.191406 148.234375 C 700.90625 149.742188 699.496094 151.140625 697.988281 152.433594 Z M 697.988281 152.433594 " fill-opacity="1" fill-rule="nonzero"/><g clip-path="url(#1d8ec1727b)"><path fill="#000000" d="M 645.855469 201.113281 C 643.707031 201.113281 641.679688 200.617188 639.796875 199.648438 C 637.703125 198.960938 635.855469 197.777344 634.324219 196.132812 C 632.671875 194.605469 631.488281 192.765625 630.792969 190.679688 C 629.742188 188.660156 629.246094 186.457031 629.328125 184.128906 C 629.296875 174.007812 629.265625 163.828125 629.230469 153.882812 C 629.179688 136.074219 629.132812 118.023438 629.09375 100.242188 C 629.054688 82.398438 629.027344 64.257812 629.003906 46.324219 C 629.007812 43.277344 629.792969 40.398438 631.328125 37.765625 C 631.339844 37.738281 631.359375 37.714844 631.378906 37.6875 L 633.929688 34.398438 C 633.949219 34.371094 633.96875 34.351562 633.996094 34.328125 C 636.109375 32.234375 638.636719 30.769531 641.507812 29.964844 C 641.542969 29.957031 641.574219 29.953125 641.605469 29.945312 L 645.941406 29.367188 C 645.960938 29.367188 645.988281 29.359375 646.011719 29.359375 C 648.238281 29.277344 650.351562 29.71875 652.304688 30.660156 C 652.632812 30.484375 652.957031 30.308594 653.277344 30.148438 C 655.308594 29.105469 657.441406 28.234375 659.503906 27.398438 C 659.746094 27.300781 659.988281 27.203125 660.234375 27.097656 C 661.359375 26.636719 662.492188 26.242188 663.617188 25.902344 C 666.730469 24.972656 670.265625 24.386719 674.765625 24.042969 C 678.464844 23.765625 682.046875 24.324219 685.507812 24.863281 C 687.617188 25.1875 689.703125 25.773438 691.726562 26.597656 C 691.929688 26.683594 692.125 26.761719 692.328125 26.84375 C 695.273438 28.042969 698.3125 29.277344 700.976562 31.21875 L 701.0625 31.285156 C 703.757812 33.246094 706.550781 35.277344 708.679688 37.945312 C 708.902344 38.21875 709.125 38.5 709.34375 38.773438 C 710.589844 40.320312 711.882812 41.917969 712.910156 43.667969 C 714.160156 45.804688 715.074219 48.15625 715.957031 50.425781 L 716.007812 50.570312 C 716.433594 51.660156 716.773438 52.8125 717.027344 53.996094 C 717.523438 56.320312 717.871094 58.816406 718.078125 61.613281 C 718.359375 65.277344 717.792969 68.945312 717.242188 72.488281 L 717.183594 72.878906 C 716.832031 75.160156 716.238281 77.539062 715.414062 79.957031 C 715.050781 81.027344 714.625 82.140625 714.109375 83.355469 C 713.984375 83.652344 713.863281 83.953125 713.738281 84.25 C 712.910156 86.226562 712.058594 88.273438 711.085938 90.238281 C 711.074219 90.257812 711.066406 90.285156 711.054688 90.304688 C 715.238281 92.140625 718.808594 94.945312 721.835938 97.425781 C 725.285156 100.261719 728.046875 103.886719 730.355469 107.066406 C 733.023438 110.730469 734.75 114.898438 736.269531 118.570312 C 737.417969 121.347656 738.226562 124.246094 738.671875 127.183594 C 739.394531 131.980469 739.910156 135.984375 739.472656 140.242188 C 739.0625 144.199219 738.488281 148.78125 736.835938 153.136719 C 735.445312 156.804688 733.679688 161.054688 731.101562 164.832031 C 728.265625 168.976562 725.539062 172.246094 722.765625 174.820312 C 720.683594 176.757812 718.371094 178.472656 716.132812 180.136719 L 716.046875 180.203125 C 714.859375 181.085938 713.613281 181.910156 712.339844 182.660156 C 711.003906 183.4375 709.613281 184.148438 708.203125 184.765625 L 707.699219 184.984375 C 705.316406 186.027344 702.851562 187.105469 700.3125 187.886719 C 698.808594 188.347656 697.25 188.722656 695.675781 188.996094 C 692.222656 189.59375 689.425781 189.945312 686.871094 190.089844 C 682.167969 190.355469 677.503906 189.710938 673.179688 188.96875 C 670.046875 188.4375 666.9375 187.546875 663.949219 186.324219 C 663.699219 186.226562 663.480469 186.128906 663.261719 186.046875 C 663.003906 188.386719 662.257812 190.613281 661.050781 192.6875 C 661.039062 192.714844 661.019531 192.742188 661 192.765625 L 658.445312 196.054688 C 658.425781 196.082031 658.40625 196.101562 658.382812 196.125 C 656.265625 198.21875 653.742188 199.683594 650.867188 200.488281 C 650.835938 200.496094 650.804688 200.5 650.769531 200.507812 L 646.4375 201.085938 C 646.417969 201.085938 646.390625 201.09375 646.363281 201.09375 C 646.207031 201.105469 646.03125 201.113281 645.855469 201.113281 Z M 632.554688 38.53125 C 631.164062 40.929688 630.453125 43.554688 630.445312 46.332031 C 630.464844 64.265625 630.496094 82.40625 630.535156 100.242188 C 630.574219 118.023438 630.621094 136.074219 630.675781 153.882812 C 630.707031 163.835938 630.738281 174.019531 630.773438 184.140625 C 630.773438 184.152344 630.773438 184.160156 630.773438 184.171875 C 630.695312 186.273438 631.136719 188.253906 632.097656 190.074219 C 632.117188 190.109375 632.128906 190.148438 632.140625 190.1875 C 632.757812 192.070312 633.828125 193.726562 635.320312 195.113281 C 635.335938 195.125 635.347656 195.140625 635.359375 195.152344 C 636.742188 196.640625 638.410156 197.707031 640.308594 198.316406 C 640.347656 198.332031 640.386719 198.34375 640.417969 198.363281 C 642.234375 199.3125 644.210938 199.753906 646.304688 199.683594 L 650.554688 199.109375 C 653.152344 198.375 655.4375 197.050781 657.363281 195.160156 L 659.855469 191.949219 C 661.101562 189.789062 661.808594 187.449219 661.9375 184.992188 C 661.953125 184.757812 662.074219 184.550781 662.273438 184.425781 C 662.46875 184.304688 662.714844 184.285156 662.929688 184.375 C 663.386719 184.5625 663.890625 184.773438 664.515625 185.023438 C 667.410156 186.203125 670.410156 187.066406 673.445312 187.578125 C 677.695312 188.308594 682.257812 188.9375 686.820312 188.683594 C 689.3125 188.542969 692.0625 188.203125 695.460938 187.613281 C 696.976562 187.351562 698.472656 186.988281 699.914062 186.546875 C 702.375 185.785156 704.800781 184.726562 707.144531 183.699219 L 707.648438 183.476562 C 709.003906 182.886719 710.34375 182.203125 711.636719 181.449219 C 712.863281 180.734375 714.0625 179.9375 715.210938 179.085938 L 715.296875 179.019531 C 717.503906 177.382812 719.78125 175.679688 721.804688 173.800781 C 724.5 171.296875 727.15625 168.105469 729.929688 164.050781 C 732.429688 160.398438 734.15625 156.242188 735.519531 152.65625 C 737.109375 148.464844 737.667969 143.984375 738.070312 140.117188 C 738.496094 136.03125 737.984375 132.117188 737.273438 127.421875 C 736.851562 124.601562 736.074219 121.8125 734.96875 119.144531 C 733.480469 115.542969 731.792969 111.453125 729.226562 107.929688 C 726.960938 104.824219 724.273438 101.28125 720.957031 98.558594 C 717.96875 96.101562 714.4375 93.339844 710.355469 91.570312 C 710.179688 91.492188 709.996094 91.414062 709.820312 91.335938 C 709.640625 91.257812 709.496094 91.109375 709.429688 90.921875 C 709.363281 90.730469 709.378906 90.53125 709.460938 90.355469 C 709.585938 90.109375 709.710938 89.859375 709.828125 89.628906 C 710.773438 87.703125 711.621094 85.683594 712.4375 83.726562 C 712.5625 83.425781 712.6875 83.128906 712.8125 82.828125 C 713.308594 81.644531 713.726562 80.558594 714.078125 79.519531 C 714.875 77.1875 715.449219 74.886719 715.789062 72.6875 L 715.847656 72.296875 C 716.382812 68.835938 716.929688 65.246094 716.667969 61.75 C 716.460938 59.011719 716.125 56.582031 715.644531 54.320312 C 715.410156 53.214844 715.089844 52.136719 714.691406 51.117188 L 714.632812 50.972656 C 713.769531 48.757812 712.882812 46.460938 711.683594 44.414062 C 710.710938 42.757812 709.457031 41.195312 708.242188 39.6875 C 708.019531 39.410156 707.792969 39.128906 707.570312 38.855469 C 705.558594 36.335938 702.851562 34.367188 700.226562 32.453125 L 700.140625 32.390625 C 697.617188 30.550781 694.789062 29.40625 691.792969 28.183594 C 691.589844 28.101562 691.390625 28.023438 691.191406 27.9375 C 689.273438 27.15625 687.289062 26.605469 685.292969 26.292969 C 681.910156 25.765625 678.414062 25.21875 674.875 25.488281 C 670.484375 25.816406 667.035156 26.390625 664.027344 27.289062 C 662.949219 27.605469 661.859375 27.996094 660.777344 28.4375 C 660.535156 28.535156 660.289062 28.640625 660.046875 28.738281 C 658.007812 29.570312 655.902344 30.425781 653.929688 31.433594 C 653.519531 31.648438 653.09375 31.875 652.671875 32.109375 C 652.460938 32.226562 652.199219 32.234375 651.984375 32.117188 C 650.171875 31.167969 648.191406 30.726562 646.097656 30.796875 L 641.847656 31.367188 C 639.25 32.105469 636.964844 33.429688 635.039062 35.320312 Z M 684.566406 157.675781 C 683.464844 157.675781 682.355469 157.628906 681.253906 157.542969 C 681.226562 157.542969 681.199219 157.539062 681.175781 157.53125 C 678.8125 157.089844 676.460938 156.4375 674.183594 155.613281 C 674.164062 155.605469 674.136719 155.59375 674.117188 155.585938 C 671.984375 154.566406 669.929688 153.371094 667.996094 152.039062 C 667.976562 152.027344 667.957031 152.011719 667.9375 151.992188 C 666.632812 150.882812 665.398438 149.691406 664.261719 148.464844 C 663.617188 147.769531 662.898438 147.15625 662.128906 146.648438 C 661.925781 146.519531 661.808594 146.292969 661.808594 146.058594 L 661.796875 142.40625 C 661.78125 138.953125 661.777344 135.503906 661.769531 132.050781 C 661.769531 131.714844 662.011719 131.421875 662.34375 131.347656 C 662.742188 131.265625 663.140625 131.160156 663.53125 131.042969 C 668.519531 129.007812 673.804688 126.6875 678.699219 123.550781 C 681.273438 121.898438 683.71875 120.035156 686.207031 118.101562 C 686.316406 118.019531 686.453125 117.964844 686.597656 117.953125 C 688.335938 117.835938 690.078125 117.828125 691.78125 117.945312 C 691.8125 117.945312 691.847656 117.953125 691.871094 117.960938 C 693.300781 118.246094 694.71875 118.628906 696.074219 119.089844 C 696.109375 119.105469 696.140625 119.117188 696.167969 119.128906 C 697.308594 119.707031 698.433594 120.363281 699.507812 121.078125 C 699.535156 121.097656 699.5625 121.117188 699.585938 121.136719 C 700.683594 122.105469 701.734375 123.160156 702.714844 124.269531 C 702.734375 124.289062 702.753906 124.316406 702.765625 124.34375 C 703.746094 125.773438 704.632812 127.292969 705.410156 128.859375 C 705.421875 128.886719 705.433594 128.910156 705.441406 128.9375 C 706.054688 130.660156 706.542969 132.429688 706.898438 134.210938 C 706.902344 134.242188 706.910156 134.269531 706.910156 134.300781 C 707.019531 135.894531 707.027344 137.5 706.921875 139.070312 C 706.921875 139.105469 706.917969 139.136719 706.910156 139.167969 C 706.589844 140.714844 706.160156 142.269531 705.617188 143.796875 C 705.613281 143.824219 705.597656 143.847656 705.585938 143.875 C 704.769531 145.511719 703.824219 147.125 702.757812 148.660156 C 702.746094 148.679688 702.726562 148.703125 702.714844 148.722656 C 701.394531 150.238281 699.953125 151.675781 698.417969 152.992188 C 698.398438 153.011719 698.378906 153.027344 698.359375 153.039062 C 696.714844 154.171875 694.984375 155.179688 693.210938 156.050781 C 693.183594 156.0625 693.15625 156.074219 693.132812 156.082031 C 691.371094 156.707031 689.535156 157.207031 687.695312 157.5625 C 687.667969 157.570312 687.636719 157.570312 687.609375 157.578125 C 686.617188 157.636719 685.59375 157.675781 684.566406 157.675781 Z M 681.414062 156.121094 C 683.445312 156.277344 685.488281 156.28125 687.484375 156.140625 C 689.226562 155.796875 690.964844 155.328125 692.636719 154.734375 C 694.324219 153.910156 695.972656 152.949219 697.53125 151.875 C 698.988281 150.621094 700.363281 149.257812 701.617188 147.8125 C 702.621094 146.359375 703.523438 144.835938 704.292969 143.285156 C 704.796875 141.847656 705.207031 140.382812 705.507812 138.933594 C 705.605469 137.460938 705.597656 135.953125 705.492188 134.449219 C 705.15625 132.765625 704.691406 131.089844 704.117188 129.464844 C 703.378906 127.984375 702.539062 126.546875 701.617188 125.195312 C 700.695312 124.152344 699.710938 123.167969 698.6875 122.257812 C 697.6875 121.59375 696.644531 120.980469 695.578125 120.441406 C 694.304688 120.015625 692.988281 119.65625 691.648438 119.382812 C 690.097656 119.28125 688.511719 119.28125 686.929688 119.375 C 684.476562 121.28125 682.054688 123.121094 679.488281 124.757812 C 674.484375 127.96875 669.113281 130.324219 664.054688 132.382812 C 664.035156 132.390625 664.015625 132.394531 663.996094 132.402344 C 663.738281 132.480469 663.472656 132.558594 663.210938 132.625 C 663.21875 135.886719 663.230469 139.144531 663.238281 142.40625 L 663.242188 145.6875 C 663.988281 146.214844 664.679688 146.820312 665.320312 147.5 C 666.410156 148.683594 667.597656 149.820312 668.84375 150.886719 C 670.691406 152.160156 672.664062 153.304688 674.707031 154.289062 C 676.90625 155.074219 679.15625 155.691406 681.414062 156.121094 Z M 697.988281 152.429688 Z M 662.429688 93.765625 C 662.296875 93.765625 662.171875 93.734375 662.0625 93.664062 C 661.847656 93.535156 661.710938 93.300781 661.691406 93.050781 L 661.691406 89.222656 C 661.695312 85.011719 661.691406 80.800781 661.683594 76.582031 C 661.675781 74.007812 661.675781 71.433594 661.757812 68.859375 L 661.757812 64.097656 C 661.664062 63.855469 661.78125 63.632812 661.976562 63.503906 C 662.792969 62.957031 663.5625 62.320312 664.28125 61.613281 C 664.296875 61.601562 664.308594 61.585938 664.320312 61.582031 C 664.414062 61.503906 664.503906 61.425781 664.59375 61.347656 L 664.640625 61.308594 C 664.660156 61.292969 664.671875 61.28125 664.691406 61.269531 C 666.566406 59.960938 668.511719 58.8125 670.484375 57.847656 C 670.507812 57.835938 670.535156 57.824219 670.5625 57.816406 C 672.074219 57.285156 673.617188 56.847656 675.144531 56.535156 C 675.175781 56.53125 675.214844 56.523438 675.246094 56.523438 C 676.304688 56.457031 677.363281 56.453125 678.394531 56.503906 C 678.433594 56.503906 678.472656 56.511719 678.511719 56.515625 C 679.417969 56.71875 680.324219 56.964844 681.207031 57.25 C 681.246094 57.265625 681.277344 57.277344 681.316406 57.296875 C 681.988281 57.648438 682.648438 58.023438 683.277344 58.429688 C 683.316406 58.453125 683.347656 58.480469 683.378906 58.507812 C 683.726562 58.824219 684.066406 59.164062 684.390625 59.5 C 684.425781 59.53125 684.457031 59.570312 684.484375 59.617188 C 684.664062 59.917969 684.847656 60.222656 685.019531 60.535156 C 685.042969 60.578125 685.0625 60.625 685.078125 60.671875 C 685.234375 61.191406 685.382812 61.722656 685.507812 62.261719 C 685.519531 62.308594 685.519531 62.347656 685.527344 62.394531 C 685.578125 63.484375 685.566406 64.609375 685.488281 65.753906 C 685.488281 65.785156 685.480469 65.8125 685.476562 65.84375 C 685.023438 68.105469 684.347656 70.453125 683.457031 72.8125 C 683.453125 72.832031 683.445312 72.84375 683.4375 72.863281 C 681.632812 76.71875 679.367188 80.519531 676.710938 84.160156 C 676.703125 84.171875 676.691406 84.179688 676.683594 84.191406 C 675.097656 86.117188 673.378906 87.988281 671.59375 89.757812 C 671.519531 89.828125 671.4375 89.878906 671.335938 89.917969 C 669.300781 90.679688 667.269531 91.578125 665.484375 92.363281 C 664.574219 92.765625 663.675781 93.207031 662.789062 93.675781 C 662.664062 93.742188 662.546875 93.765625 662.429688 93.765625 Z M 663.054688 64.472656 L 663.054688 68.867188 C 663.105469 71.441406 663.105469 74.015625 663.113281 76.589844 C 663.121094 80.800781 663.125 85.011719 663.121094 89.222656 L 663.121094 91.882812 C 663.71875 91.597656 664.300781 91.324219 664.875 91.0625 C 666.636719 90.285156 668.636719 89.398438 670.664062 88.640625 C 672.375 86.941406 674.015625 85.148438 675.535156 83.308594 C 678.125 79.753906 680.339844 76.042969 682.101562 72.285156 C 682.949219 70.023438 683.601562 67.78125 684.039062 65.617188 C 684.105469 64.570312 684.117188 63.53125 684.078125 62.53125 C 683.96875 62.066406 683.851562 61.613281 683.714844 61.164062 C 683.574219 60.917969 683.433594 60.675781 683.289062 60.4375 C 683.015625 60.148438 682.726562 59.871094 682.441406 59.597656 C 681.878906 59.246094 681.296875 58.910156 680.699219 58.597656 C 679.894531 58.335938 679.074219 58.109375 678.257812 57.925781 C 677.316406 57.882812 676.34375 57.886719 675.378906 57.945312 C 673.949219 58.246094 672.5 58.65625 671.078125 59.15625 C 669.195312 60.078125 667.335938 61.175781 665.542969 62.425781 L 665.523438 62.445312 C 665.4375 62.515625 665.359375 62.582031 665.28125 62.652344 C 664.589844 63.316406 663.859375 63.925781 663.054688 64.472656 Z M 663.054688 64.472656 " fill-opacity="1" fill-rule="nonzero"/></g><path fill="#fcffeb" d="M 672.257812 19.996094 C 672.257812 20.761719 672.191406 21.519531 672.054688 22.269531 C 671.921875 23.023438 671.71875 23.75 671.457031 24.460938 C 671.191406 25.167969 670.867188 25.839844 670.480469 26.476562 C 670.097656 27.113281 669.660156 27.703125 669.171875 28.246094 C 668.679688 28.785156 668.148438 29.269531 667.574219 29.695312 C 666.996094 30.121094 666.390625 30.480469 665.75 30.773438 C 665.109375 31.066406 664.453125 31.289062 663.773438 31.4375 C 663.09375 31.585938 662.410156 31.660156 661.714844 31.660156 C 661.023438 31.660156 660.339844 31.585938 659.660156 31.4375 C 658.980469 31.289062 658.320312 31.066406 657.683594 30.773438 C 657.042969 30.480469 656.4375 30.121094 655.859375 29.695312 C 655.285156 29.269531 654.753906 28.785156 654.261719 28.246094 C 653.773438 27.703125 653.335938 27.113281 652.953125 26.476562 C 652.566406 25.839844 652.242188 25.167969 651.976562 24.460938 C 651.714844 23.75 651.511719 23.023438 651.378906 22.269531 C 651.242188 21.519531 651.175781 20.761719 651.175781 19.996094 C 651.175781 19.226562 651.242188 18.46875 651.378906 17.71875 C 651.511719 16.96875 651.714844 16.238281 651.976562 15.53125 C 652.242188 14.820312 652.566406 14.148438 652.953125 13.511719 C 653.335938 12.875 653.773438 12.285156 654.261719 11.746094 C 654.753906 11.203125 655.285156 10.71875 655.859375 10.292969 C 656.4375 9.867188 657.042969 9.507812 657.683594 9.214844 C 658.320312 8.921875 658.980469 8.699219 659.660156 8.550781 C 660.339844 8.402344 661.023438 8.328125 661.714844 8.328125 C 662.410156 8.328125 663.09375 8.402344 663.773438 8.550781 C 664.453125 8.699219 665.109375 8.921875 665.75 9.214844 C 666.390625 9.507812 666.996094 9.867188 667.574219 10.292969 C 668.148438 10.71875 668.679688 11.203125 669.171875 11.746094 C 669.660156 12.285156 670.097656 12.875 670.480469 13.511719 C 670.867188 14.148438 671.191406 14.820312 671.457031 15.53125 C 671.71875 16.238281 671.921875 16.96875 672.054688 17.71875 C 672.191406 18.46875 672.257812 19.226562 672.257812 19.996094 Z M 672.257812 19.996094 " fill-opacity="1" fill-rule="nonzero"/><path fill="#000000" d="M 665.730469 19.996094 C 665.730469 20.488281 665.636719 20.964844 665.445312 21.425781 C 665.253906 21.882812 664.984375 22.285156 664.632812 22.636719 C 664.28125 22.988281 663.875 23.257812 663.414062 23.449219 C 662.953125 23.636719 662.476562 23.730469 661.976562 23.730469 C 661.480469 23.730469 661 23.636719 660.542969 23.449219 C 660.082031 23.257812 659.675781 22.988281 659.324219 22.636719 C 658.972656 22.285156 658.699219 21.882812 658.511719 21.425781 C 658.320312 20.964844 658.226562 20.488281 658.226562 19.996094 C 658.226562 19.5 658.320312 19.023438 658.511719 18.5625 C 658.699219 18.105469 658.972656 17.703125 659.324219 17.351562 C 659.675781 17 660.082031 16.730469 660.542969 16.542969 C 661 16.351562 661.480469 16.257812 661.976562 16.257812 C 662.476562 16.257812 662.953125 16.351562 663.414062 16.542969 C 663.875 16.730469 664.28125 17 664.632812 17.351562 C 664.984375 17.703125 665.253906 18.105469 665.445312 18.5625 C 665.636719 19.023438 665.730469 19.5 665.730469 19.996094 Z M 665.730469 19.996094 " fill-opacity="1" fill-rule="nonzero"/><path fill="#fcffeb" d="M 707.503906 19.996094 C 707.503906 20.761719 707.4375 21.519531 707.300781 22.269531 C 707.167969 23.023438 706.964844 23.75 706.703125 24.460938 C 706.4375 25.167969 706.113281 25.839844 705.726562 26.476562 C 705.34375 27.113281 704.90625 27.703125 704.417969 28.246094 C 703.925781 28.785156 703.394531 29.269531 702.820312 29.695312 C 702.242188 30.121094 701.636719 30.480469 700.996094 30.773438 C 700.359375 31.066406 699.699219 31.289062 699.019531 31.4375 C 698.339844 31.585938 697.65625 31.660156 696.964844 31.660156 C 696.269531 31.660156 695.585938 31.585938 694.90625 31.4375 C 694.226562 31.289062 693.570312 31.066406 692.929688 30.773438 C 692.289062 30.480469 691.683594 30.121094 691.105469 29.695312 C 690.53125 29.269531 690 28.785156 689.507812 28.246094 C 689.019531 27.703125 688.582031 27.113281 688.199219 26.476562 C 687.8125 25.839844 687.488281 25.167969 687.222656 24.460938 C 686.960938 23.75 686.757812 23.023438 686.625 22.269531 C 686.488281 21.519531 686.421875 20.761719 686.421875 19.996094 C 686.421875 19.226562 686.488281 18.46875 686.625 17.71875 C 686.757812 16.96875 686.960938 16.238281 687.222656 15.53125 C 687.488281 14.820312 687.8125 14.148438 688.199219 13.511719 C 688.582031 12.875 689.019531 12.285156 689.507812 11.746094 C 690 11.203125 690.53125 10.71875 691.105469 10.292969 C 691.683594 9.867188 692.289062 9.507812 692.929688 9.214844 C 693.570312 8.921875 694.226562 8.699219 694.90625 8.550781 C 695.585938 8.402344 696.269531 8.328125 696.964844 8.328125 C 697.65625 8.328125 698.339844 8.402344 699.019531 8.550781 C 699.699219 8.699219 700.359375 8.921875 700.996094 9.214844 C 701.636719 9.507812 702.242188 9.867188 702.820312 10.292969 C 703.394531 10.71875 703.925781 11.203125 704.417969 11.746094 C 704.90625 12.285156 705.34375 12.875 705.726562 13.511719 C 706.113281 14.148438 706.4375 14.820312 706.703125 15.53125 C 706.964844 16.238281 707.167969 16.96875 707.300781 17.71875 C 707.4375 18.46875 707.503906 19.226562 707.503906 19.996094 Z M 707.503906 19.996094 " fill-opacity="1" fill-rule="nonzero"/><g clip-path="url(#7d7dc5bbd1)"><path fill="#000000" d="M 661.714844 32.375 C 655.507812 32.375 650.457031 26.820312 650.457031 19.996094 C 650.457031 13.167969 655.507812 7.613281 661.714844 7.613281 C 667.925781 7.613281 672.976562 13.167969 672.976562 19.996094 C 672.976562 26.820312 667.925781 32.375 661.714844 32.375 Z M 661.714844 9.042969 C 656.300781 9.042969 651.894531 13.957031 651.894531 19.996094 C 651.894531 26.03125 656.300781 30.945312 661.714844 30.945312 C 667.132812 30.945312 671.539062 26.03125 671.539062 19.996094 C 671.539062 13.957031 667.132812 9.042969 661.714844 9.042969 Z M 661.714844 9.042969 " fill-opacity="1" fill-rule="nonzero"/></g><g clip-path="url(#5ef5a4207b)"><path fill="#000000" d="M 696.964844 32.375 C 690.753906 32.375 685.703125 26.820312 685.703125 19.996094 C 685.703125 13.167969 690.753906 7.613281 696.964844 7.613281 C 703.171875 7.613281 708.222656 13.167969 708.222656 19.996094 C 708.222656 26.820312 703.171875 32.375 696.964844 32.375 Z M 696.964844 9.042969 C 691.546875 9.042969 687.140625 13.957031 687.140625 19.996094 C 687.140625 26.03125 691.546875 30.945312 696.964844 30.945312 C 702.378906 30.945312 706.785156 26.03125 706.785156 19.996094 C 706.785156 13.957031 702.378906 9.042969 696.964844 9.042969 Z M 696.964844 9.042969 " fill-opacity="1" fill-rule="nonzero"/></g><path fill="#000000" d="M 700.976562 19.996094 C 700.976562 20.488281 700.882812 20.964844 700.691406 21.425781 C 700.5 21.882812 700.230469 22.285156 699.878906 22.636719 C 699.527344 22.988281 699.121094 23.257812 698.660156 23.449219 C 698.199219 23.636719 697.722656 23.730469 697.222656 23.730469 C 696.726562 23.730469 696.246094 23.636719 695.789062 23.449219 C 695.328125 23.257812 694.921875 22.988281 694.570312 22.636719 C 694.21875 22.285156 693.945312 21.882812 693.757812 21.425781 C 693.566406 20.964844 693.472656 20.488281 693.472656 19.996094 C 693.472656 19.5 693.566406 19.023438 693.757812 18.5625 C 693.945312 18.105469 694.21875 17.703125 694.570312 17.351562 C 694.921875 17 695.328125 16.730469 695.789062 16.542969 C 696.246094 16.351562 696.726562 16.257812 697.222656 16.257812 C 697.722656 16.257812 698.199219 16.351562 698.660156 16.542969 C 699.121094 16.730469 699.527344 17 699.878906 17.351562 C 700.230469 17.703125 700.5 18.105469 700.691406 18.5625 C 700.882812 19.023438 700.976562 19.5 700.976562 19.996094 Z M 700.976562 19.996094 " fill-opacity="1" fill-rule="nonzero"/><path fill="#000000" d="M 679.816406 53.644531 C 677.859375 53.644531 675.867188 52.851562 673.910156 51.292969 C 672.394531 50.089844 670.886719 48.417969 669.433594 46.332031 C 666.976562 42.816406 665.515625 39.351562 665.457031 39.207031 C 665.285156 38.804688 665.476562 38.34375 665.882812 38.179688 C 666.285156 38.011719 666.75 38.199219 666.914062 38.601562 C 666.925781 38.636719 668.382812 42.074219 670.742188 45.453125 C 672.113281 47.410156 673.511719 48.964844 674.902344 50.070312 C 676.574219 51.394531 678.222656 52.070312 679.816406 52.070312 C 680.703125 52.070312 681.605469 51.855469 682.480469 51.441406 C 683.453125 50.972656 684.4375 50.238281 685.398438 49.257812 C 687.589844 47.015625 689.722656 43.425781 691.742188 38.601562 C 691.910156 38.199219 692.375 38.011719 692.773438 38.179688 C 693.175781 38.351562 693.367188 38.8125 693.195312 39.207031 C 692.121094 41.773438 691.003906 44.03125 689.867188 45.910156 C 688.785156 47.695312 687.660156 49.191406 686.527344 50.355469 C 684.390625 52.539062 682.140625 53.644531 679.816406 53.644531 Z M 679.816406 53.644531 " fill-opacity="1" fill-rule="nonzero"/><path fill="#ffcf00" d="M 870.671875 200.34375 C 861.0625 200.34375 853.894531 196.941406 851.503906 191.242188 C 849.59375 186.695312 847.773438 182.074219 845.84375 177.183594 C 843.527344 171.304688 841.132812 165.230469 838.515625 159.132812 C 828.234375 159.550781 817.523438 159.78125 808.285156 159.78125 C 804.902344 159.78125 801.757812 159.75 798.921875 159.6875 L 797.96875 162.15625 C 794.71875 170.585938 790.269531 182.097656 786.71875 190.257812 C 784.4375 195.523438 777.578125 198.648438 768.378906 198.648438 C 759.019531 198.648438 746.355469 195.035156 740.671875 187.101562 C 737.703125 182.960938 737.039062 178.097656 738.761719 173.046875 C 745.015625 154.609375 789.988281 55.117188 799.871094 34.542969 C 803.167969 27.695312 810.761719 23.410156 819.6875 23.410156 C 829.101562 23.410156 837.292969 28.027344 840.554688 35.164062 C 856.785156 70.71875 891.621094 153.3125 897.554688 177.871094 C 897.847656 178.972656 898.011719 180.09375 898.042969 181.230469 C 898.074219 182.371094 897.972656 183.5 897.738281 184.613281 C 897.503906 185.730469 897.144531 186.800781 896.65625 187.832031 C 896.171875 188.863281 895.574219 189.824219 894.863281 190.714844 C 890.261719 196.5625 880.765625 200.34375 870.675781 200.34375 Z M 809.347656 116.425781 C 813.972656 116.425781 820.410156 116.394531 824.953125 116.121094 L 824.136719 113.789062 C 822.027344 107.808594 819.019531 99.175781 817.050781 93.953125 C 815.054688 98.625 812.472656 105.726562 810.519531 111.117188 C 809.769531 113.160156 809.105469 115 808.570312 116.425781 Z M 809.347656 116.425781 " fill-opacity="1" fill-rule="nonzero"/><g clip-path="url(#3ac20af9f2)"><path fill="#000000" d="M 898.453125 177.65625 C 892.523438 153.039062 857.648438 70.359375 841.425781 34.78125 C 838.011719 27.304688 829.488281 22.480469 819.703125 22.480469 C 810.417969 22.480469 802.496094 26.945312 799.042969 34.140625 C 789.160156 54.722656 744.15625 154.308594 737.894531 172.746094 C 736.078125 178.097656 736.777344 183.25 739.925781 187.648438 C 744.1875 193.589844 754.640625 199.585938 768.402344 199.585938 C 777.984375 199.585938 785.15625 196.234375 787.597656 190.628906 C 791.152344 182.449219 795.609375 170.917969 798.863281 162.496094 L 799.582031 160.636719 C 802.246094 160.6875 805.175781 160.714844 808.304688 160.714844 C 817.359375 160.714844 827.832031 160.492188 837.933594 160.09375 C 840.445312 165.976562 842.757812 171.84375 844.996094 177.53125 C 846.925781 182.421875 848.746094 187.042969 850.660156 191.601562 C 853.203125 197.664062 860.695312 201.277344 870.675781 201.277344 C 881.039062 201.277344 890.828125 197.359375 895.601562 191.292969 C 896.355469 190.347656 896.992188 189.328125 897.507812 188.234375 C 898.023438 187.140625 898.402344 186 898.652344 184.816406 C 898.898438 183.628906 899.007812 182.433594 898.972656 181.222656 C 898.941406 180.015625 898.765625 178.824219 898.453125 177.65625 Z M 870.671875 199.40625 C 862.402344 199.40625 854.792969 196.667969 852.359375 190.878906 C 848.039062 180.578125 843.984375 169.449219 839.121094 158.167969 C 828.976562 158.589844 817.933594 158.84375 808.285156 158.84375 C 804.722656 158.84375 801.355469 158.8125 798.273438 158.738281 C 794.882812 167.5 789.847656 180.722656 785.847656 189.882812 C 783.523438 195.234375 776.398438 197.714844 768.367188 197.714844 C 753.042969 197.714844 734.429688 188.679688 739.632812 173.347656 C 745.800781 155.195312 790.9375 55.28125 800.699219 34.949219 C 804.148438 27.769531 811.875 24.347656 819.664062 24.347656 C 827.960938 24.347656 836.332031 28.222656 839.679688 35.554688 C 854.757812 68.566406 890.488281 152.695312 896.621094 178.09375 C 899.960938 191.84375 884.40625 199.40625 870.671875 199.40625 Z M 870.671875 199.40625 " fill-opacity="1" fill-rule="nonzero"/></g><path fill="#000000" d="M 807.214844 117.359375 L 809.347656 117.359375 C 814.554688 117.359375 821.738281 117.3125 826.238281 116.964844 C 824.230469 111.253906 819.351562 97.140625 817.113281 91.507812 C 814.152344 97.820312 809.175781 112.300781 807.214844 117.359375 Z M 823.65625 115.253906 C 819.46875 115.457031 814.058594 115.488281 809.917969 115.488281 C 810.355469 114.296875 810.855469 112.921875 811.390625 111.4375 C 813.0625 106.84375 815.183594 101.007812 817.003906 96.507812 C 818.921875 101.71875 821.4375 108.910156 823.25 114.09375 Z M 823.65625 115.253906 " fill-opacity="1" fill-rule="nonzero"/><g clip-path="url(#3541f23ef4)"><path fill="#000000" d="M 849.382812 58.96875 C 838.785156 58.96875 829.636719 65.132812 825.328125 74.050781 C 822.835938 73.078125 819.757812 72.335938 816.195312 72.378906 C 812.890625 72.421875 810.019531 73.128906 807.675781 74.042969 C 803.359375 65.121094 794.207031 58.96875 783.621094 58.96875 C 768.871094 58.96875 756.925781 70.886719 756.925781 85.597656 C 756.925781 100.304688 768.871094 112.21875 783.621094 112.21875 C 798.359375 112.21875 810.3125 100.304688 810.3125 85.597656 C 810.3125 83.707031 810.113281 81.867188 809.742188 80.089844 C 811.703125 79.425781 813.972656 78.988281 816.503906 78.988281 C 819.039062 78.988281 821.304688 79.433594 823.269531 80.089844 C 822.898438 81.867188 822.699219 83.707031 822.699219 85.597656 C 822.699219 100.296875 834.652344 112.21875 849.390625 112.21875 C 864.128906 112.21875 876.082031 100.304688 876.082031 85.597656 C 876.082031 70.886719 864.128906 58.96875 849.382812 58.96875 Z M 783.621094 109.710938 C 770.265625 109.710938 759.445312 98.917969 759.445312 85.59375 C 759.445312 72.273438 770.265625 61.480469 783.621094 61.480469 C 796.972656 61.480469 807.796875 72.273438 807.796875 85.597656 C 807.796875 98.917969 796.964844 109.710938 783.621094 109.710938 Z M 849.382812 109.710938 C 836.027344 109.710938 825.207031 98.917969 825.207031 85.59375 C 825.207031 72.273438 836.035156 61.480469 849.382812 61.480469 C 862.738281 61.480469 873.558594 72.273438 873.558594 85.597656 C 873.558594 98.917969 862.738281 109.710938 849.382812 109.710938 Z M 849.382812 109.710938 " fill-opacity="1" fill-rule="nonzero"/></g><path fill="#000000" d="M 770.9375 69.4375 C 770.273438 68.988281 764.808594 73.421875 763.292969 79.980469 C 761.691406 86.882812 765.082031 93.515625 765.921875 93.378906 C 766.675781 93.25 765.023438 87.667969 767.039062 79.625 C 768.65625 73.164062 771.476562 69.796875 770.9375 69.4375 Z M 770.9375 69.4375 " fill-opacity="1" fill-rule="nonzero"/><path fill="#000000" d="M 835.707031 69.4375 C 835.042969 68.988281 829.574219 73.421875 828.0625 79.980469 C 826.460938 86.882812 829.851562 93.515625 830.691406 93.378906 C 831.441406 93.25 829.792969 87.667969 831.804688 79.625 C 833.425781 73.164062 836.242188 69.796875 835.707031 69.4375 Z M 835.707031 69.4375 " fill-opacity="1" fill-rule="nonzero"/><g clip-path="url(#e66b8527e2)"><path fill="#000000" d="M 858.074219 154.25 C 857.289062 152.367188 849.835938 134.617188 846.738281 131.785156 C 841.03125 126.574219 820.242188 126.421875 817.890625 126.421875 L 817.738281 126.421875 C 815.371094 126.425781 794.417969 126.605469 788.746094 131.785156 C 785.542969 134.710938 777.683594 153.585938 777.347656 154.386719 C 777.234375 154.664062 777.285156 154.984375 777.480469 155.214844 C 777.675781 155.441406 777.984375 155.539062 778.273438 155.464844 C 778.464844 155.417969 797.613281 150.660156 817.015625 150.660156 L 817.738281 150.660156 C 835.339844 150.765625 857.011719 155.425781 857.230469 155.472656 C 857.285156 155.484375 857.34375 155.492188 857.398438 155.492188 C 857.402344 155.492188 857.410156 155.488281 857.414062 155.492188 C 857.851562 155.492188 858.207031 155.132812 858.207031 154.695312 C 858.207031 154.53125 858.15625 154.378906 858.074219 154.25 Z M 858.074219 154.25 " fill-opacity="1" fill-rule="nonzero"/></g></svg>